<?xml version="1.0" encoding="UTF-8"?>
<svg version="1.1" xmlns="http://www.w3.org/2000/svg" width="509" height="509">
<path d="M0 0 C0.33 0 0.66 0 1 0 C1 1.65 1 3.3 1 5 C1.80824219 5.03738281 2.61648437 5.07476562 3.44921875 5.11328125 C5.05216797 5.21189453 5.05216797 5.21189453 6.6875 5.3125 C8.27111328 5.39951172 8.27111328 5.39951172 9.88671875 5.48828125 C13.26507231 6.04356897 15.24919046 6.9926525 18 9 C19.35439668 11.70879335 19.06501451 14.00933268 19 17 C20.30710938 16.20335937 20.30710938 16.20335937 21.640625 15.390625 C33.92392365 8.05013961 45.46492218 4.15128797 59.8125 3.4375 C60.63403564 3.3950415 61.45557129 3.35258301 62.30200195 3.30883789 C70.53652407 2.91694308 78.75851812 2.90502774 87 3 C87.33 3.99 87.66 4.98 88 6 C134.06510727 5.39905093 134.06510727 5.39905093 180.125 4.5 C180.93217468 4.48212433 181.73934937 4.46424866 182.57098389 4.4458313 C187.7153167 4.33029035 192.85772024 4.18598582 198 4 C199.20916077 3.95673584 199.20916077 3.95673584 200.44274902 3.91259766 C202.91822202 3.81800124 205.39257068 3.70843201 207.8671875 3.59375 C209.00173874 3.55030457 209.00173874 3.55030457 210.15921021 3.50598145 C213.87816378 3.31579052 216.82940819 3.04661442 220 1 C220.33 2.32 220.66 3.64 221 5 C222.25425781 4.9278125 223.50851562 4.855625 224.80078125 4.78125 C242.86820574 3.83068964 260.91436922 3.8992228 279 4 C279.14236739 17.69890638 278.73091572 31.32060126 278 45 C276.86949219 45.43441406 275.73898437 45.86882812 274.57421875 46.31640625 C270.7690628 47.61454372 270.7690628 47.61454372 269.8125 50.9375 C269.9053125 52.4534375 269.9053125 52.4534375 270 54 C270.98419922 54.84884766 270.98419922 54.84884766 271.98828125 55.71484375 C274.76446922 58.86837765 274.52079121 61.6307764 274.375 65.625 C274.35566406 66.72606079 274.35566406 66.72606079 274.3359375 67.84936523 C274.10786491 76.28181485 273.09471118 84.64305301 272 93 C267.12378844 94.48686403 263.11221339 95.20866177 258 95 C258.02320313 95.81984375 258.04640625 96.6396875 258.0703125 97.484375 C258.08835937 98.56203125 258.10640625 99.6396875 258.125 100.75 C258.15980469 102.35101563 258.15980469 102.35101563 258.1953125 103.984375 C258 107 258 107 256 111 C256.33 105.72 256.66 100.44 257 95 C251.72 95 246.44 95 241 95 C241.02094727 96.36729248 241.04189453 97.73458496 241.06347656 99.14331055 C241.13593914 104.22165431 241.18182292 109.29995247 241.21972656 114.37866211 C241.23982767 116.57568042 241.26711306 118.77264532 241.30175781 120.96948242 C241.35034093 124.12952866 241.37298405 127.28886687 241.390625 130.44921875 C241.41127014 131.42960617 241.43191528 132.40999359 241.45318604 133.42008972 C241.45457769 137.66047998 241.37819341 140.30999266 239.31274414 144.07836914 C231.38613223 150.66449417 214.97630141 148.30450302 205.18481445 148.26074219 C202.27990531 148.2498781 199.37559525 148.26076621 196.47070312 148.2734375 C194.62239447 148.27211829 192.77408619 148.26956085 190.92578125 148.265625 C190.0581868 148.26967346 189.19059235 148.27372192 188.29670715 148.27789307 C182.23001088 148.23001088 182.23001088 148.23001088 180 146 C179.68214417 143.88015747 179.68214417 143.88015747 179.58813477 141.21142578 C179.54969955 140.20546356 179.51126434 139.19950134 179.47166443 138.16305542 C179.44105423 137.05995026 179.41044403 135.95684509 179.37890625 134.8203125 C179.34116592 133.6681424 179.3034256 132.51597229 179.26454163 131.32888794 C178.84688702 117.17970761 178.89120603 103.02872584 178.9375 88.875 C178.94312245 86.15104314 178.94716317 83.42708466 178.95117188 80.703125 C178.96201106 74.13539328 178.97916947 67.56770731 179 61 C175.37 61 171.74 61 168 61 C167.0555178 68.21403025 166.113694 75.42840147 165.17407227 82.64306641 C164.85574823 85.08456225 164.53676442 87.52597218 164.21704102 89.96728516 C162.50922035 103.01126976 160.84023269 116.05855075 159.3125 129.125 C159.18940964 130.16530365 159.06631927 131.2056073 158.9394989 132.2774353 C157.91599476 141.16948604 157.33505274 150.05755781 157 159 C156.67 159 156.34 159 156 159 C155.67 153.72 155.34 148.44 155 143 C154.01 143.33 153.02 143.66 152 144 C146.34675615 144.56462731 140.67596062 144.78414933 135 145 C133.48188721 145.0611499 133.48188721 145.0611499 131.93310547 145.12353516 C128.70541612 145.23861739 125.4790956 145.31210666 122.25 145.375 C121.21464111 145.41310791 120.17928223 145.45121582 119.11254883 145.49047852 C118.13181396 145.50135498 117.1510791 145.51223145 116.140625 145.5234375 C115.26954102 145.54325684 114.39845703 145.56307617 113.50097656 145.58349609 C109.78412061 144.71632646 108.38158584 142.93802899 106 140 C105.52901146 137.26893578 105.36184601 135.1734129 105.43237305 132.45581055 C105.43164291 131.71380905 105.43091278 130.97180756 105.43016052 130.20732117 C105.43363084 127.76636427 105.4724615 125.32734023 105.51171875 122.88671875 C105.52104896 121.18993675 105.52816409 119.49314125 105.53315735 117.79634094 C105.55221106 113.33916775 105.60129715 108.88281449 105.65667725 104.42596436 C105.70790526 99.87458385 105.73067893 95.32307033 105.75585938 90.77148438 C105.80941801 81.8472968 105.89471062 72.92371669 106 64 C104.63065308 64.06900513 104.63065308 64.06900513 103.23364258 64.1394043 C99.83278773 64.30312112 96.43192475 64.45239262 93.0300293 64.59204102 C91.56036968 64.65530612 90.0909427 64.72424932 88.62182617 64.79907227 C86.50475735 64.90589355 84.38768028 64.99197863 82.26953125 65.07421875 C80.36071167 65.16062622 80.36071167 65.16062622 78.41333008 65.2487793 C74.68619445 64.9771284 73.07015457 64.01012258 70 62 C63.57068753 62 58.89961638 63.80497447 54 68 C51.11626561 71.32925515 49.76667945 74.79355827 49.5625 79.1875 C50.01221108 83.10641085 50.21612782 84.34425582 53 87 C55.99217169 87.52358702 55.99217169 87.52358702 59.3125 87.3125 C60.42238281 87.28800781 61.53226562 87.26351562 62.67578125 87.23828125 C65.83960916 87.01149688 68.88337496 86.57994687 72 86 C72 85.34 72 84.68 72 84 C72.62648438 83.80664062 73.25296875 83.61328125 73.8984375 83.4140625 C75.12433594 83.02347656 75.12433594 83.02347656 76.375 82.625 C77.18710937 82.36976563 77.99921875 82.11453125 78.8359375 81.8515625 C81.16459185 81.10145717 81.16459185 81.10145717 83 79 C84.32 79 85.64 79 87 79 C87 79.66 87 80.32 87 81 C87.598125 81.103125 88.19625 81.20625 88.8125 81.3125 C91.46379165 82.14576309 92.34706363 82.76038762 94 85 C95.37880184 95.11121349 93.8447246 105.89819165 92.98687744 116.03381348 C92.87137702 117.41892909 92.76252173 118.80461618 92.6605835 120.1907959 C91.60299308 134.20523782 91.60299308 134.20523782 86 140 C75.33812213 148.37561952 53.88364737 147.04102214 41 146 C30.80719409 144.6355723 22.47721704 140.61990552 14 135 C13.55398437 135.78761719 13.10796875 136.57523438 12.6484375 137.38671875 C10.73187485 140.42506096 9.25504015 141.52748184 6 143 C3.1875 143.1875 3.1875 143.1875 1 143 C1 143.99 1 144.98 1 146 C-0.26972656 146.03738281 -1.53945312 146.07476562 -2.84765625 146.11328125 C-12.4475702 146.45967955 -21.49656356 147.1786127 -30.8359375 149.4765625 C-34.35746136 150.05913558 -36.58717041 150.05788518 -40 149 C-44.0567774 145.63269008 -46.90240468 141.53085358 -49.8125 137.1875 C-50.21919922 136.59001953 -50.62589844 135.99253906 -51.04492188 135.37695312 C-52.03479703 133.92125436 -53.01809735 132.46108826 -54 131 C-54.01417969 132.02480469 -54.02835938 133.04960937 -54.04296875 134.10546875 C-54.08989016 135.46618971 -54.13813744 136.82686541 -54.1875 138.1875 C-54.19620117 139.19780273 -54.19620117 139.19780273 -54.20507812 140.22851562 C-54.37550243 144.11040263 -54.89820235 145.87397283 -57.36328125 148.92578125 C-70.26477676 159.07495772 -93.89468439 152 -106 152 C-106.33 122.96 -106.66 93.92 -107 64 C-110.96 63.67 -114.92 63.34 -119 63 C-119.66 62.67 -120.32 62.34 -121 62 C-121.03158203 62.78737549 -121.06316406 63.57475098 -121.09570312 64.38598633 C-121.83345746 78.83335187 -123.60640056 93.18285391 -125.25531006 107.54803467 C-125.58385101 110.42065773 -125.90776386 113.29379496 -126.23162079 116.16694927 C-126.54562236 118.94927798 -126.86183631 121.73135158 -127.17878723 124.51334572 C-127.40178307 126.47247459 -127.62345151 128.43175441 -127.84509277 130.39103699 C-128.05035583 132.17493584 -128.05035583 132.17493584 -128.25976562 133.99487305 C-128.37888306 135.03693405 -128.49800049 136.07899506 -128.62072754 137.15263367 C-128.97139733 139.78526706 -129.479138 142.39568999 -130 145 C-145.18 145 -160.36 145 -176 145 C-173.525 151.93 -173.525 151.93 -171 159 C-171.33 159.99 -171.66 160.98 -172 162 C-172.83739781 159.8765984 -173.66980283 157.7512272 -174.5 155.625 C-174.9640625 154.44164062 -175.428125 153.25828125 -175.90625 152.0390625 C-177 149 -177 149 -177 147 C-178.2065625 146.814375 -178.2065625 146.814375 -179.4375 146.625 C-180.283125 146.41875 -181.12875 146.2125 -182 146 C-184.11129955 141.77740091 -183.44897487 136.27413428 -183.625 131.625 C-183.70234375 129.90023437 -183.70234375 129.90023437 -183.78125 128.140625 C-183.82507813 127.03460938 -183.86890625 125.92859375 -183.9140625 124.7890625 C-183.9548291 123.77537598 -183.9955957 122.76168945 -184.03759766 121.71728516 C-184 119 -184 119 -183.51048279 117.15115356 C-182.92225813 114.67239896 -182.8388156 112.411643 -182.79467773 109.86425781 C-182.77473251 108.84350159 -182.75478729 107.82274536 -182.73423767 106.77105713 C-182.70916893 105.12868073 -182.70916893 105.12868073 -182.68359375 103.453125 C-182.66281265 102.3267865 -182.64203156 101.200448 -182.62062073 100.03997803 C-182.55525667 96.44338051 -182.49630115 92.84671023 -182.4375 89.25 C-182.3943023 86.8111904 -182.3506876 84.37238816 -182.30664062 81.93359375 C-182.1995887 75.955806 -182.09779783 69.97794593 -182 64 C-183.485 64.495 -183.485 64.495 -185 65 C-186.84610532 65.08239169 -188.69505164 65.10743359 -190.54296875 65.09765625 C-191.61611328 65.09443359 -192.68925781 65.09121094 -193.79492188 65.08789062 C-194.91447266 65.07951172 -196.03402344 65.07113281 -197.1875 65.0625 C-198.31865234 65.05798828 -199.44980469 65.05347656 -200.61523438 65.04882812 C-203.41020927 65.03703498 -206.2050782 65.0205765 -209 65 C-209.16990029 59.02690675 -209.33016987 53.05365355 -209.48217773 47.08007812 C-209.53498065 45.05527083 -209.59024669 43.03052599 -209.64819336 41.00585938 C-209.99191327 28.9308293 -210.04765695 17.04313891 -209 5 C-188.97049808 4.89128944 -169.00699377 4.90157681 -149 6 C-148.34 4.68 -147.68 3.36 -147 2 C-137.51475637 2.10840853 -128.02957736 2.22120786 -118.54444981 2.33933926 C-114.13829733 2.39408303 -109.73213795 2.44741493 -105.32592773 2.49731445 C-101.05942517 2.5456872 -96.79298698 2.5980371 -92.52656364 2.65294075 C-90.91342752 2.67304006 -89.30027401 2.69179837 -87.68710518 2.70907402 C-82.45677643 2.76565481 -77.22868723 2.85609101 -72 3 C-71.22334362 3.02102406 -70.44668724 3.04204811 -69.64649582 3.06370926 C-67.32437597 3.13558437 -65.00431044 3.22999058 -62.68334961 3.33227539 C-61.63433771 3.36418677 -61.63433771 3.36418677 -60.56413364 3.39674282 C-56.26288656 3.61838926 -53.42888883 4.36890273 -50 7 C-47.87491756 10.18762365 -47.4979837 12.26512223 -47 16 C-46.54109375 15.24074219 -46.0821875 14.48148438 -45.609375 13.69921875 C-44.99578125 12.70535156 -44.3821875 11.71148437 -43.75 10.6875 C-43.14671875 9.70136719 -42.5434375 8.71523437 -41.921875 7.69921875 C-40.04539926 5.06376197 -38.7264334 3.67857751 -36 2 C-33.66674805 1.671875 -33.66674805 1.671875 -31.07421875 1.75 C-30.10532715 1.77707031 -29.13643555 1.80414063 -28.13818359 1.83203125 C-22.68666415 2.12381944 -17.25125575 2.52845 -11.8125 3 C-10.09836914 3.14308594 -10.09836914 3.14308594 -8.34960938 3.2890625 C-5.56603862 3.52199729 -2.78288561 3.75904088 0 4 C0 2.68 0 1.36 0 0 Z M218 2 C219 4 219 4 219 4 Z M-33 11 C-41.45237768 23.58907076 -49.73327841 36.28846597 -58 49 C-57.96970703 48.4423999 -57.93941406 47.8847998 -57.90820312 47.31030273 C-57.29666578 35.86161798 -56.84148067 24.46623164 -57 13 C-59.91638294 12.82625804 -62.83290931 12.66109307 -65.75 12.5 C-66.53632813 12.45230469 -67.32265625 12.40460938 -68.1328125 12.35546875 C-77.74875094 11.83768745 -87.37370676 11.95747895 -97 12 C-97.02283554 12.95037643 -97.04567108 13.90075287 -97.06919861 14.87992859 C-97.28805914 23.98022837 -97.50854394 33.08048765 -97.73049068 42.1807127 C-97.84445757 46.85556425 -97.95791494 51.53042683 -98.07006836 56.20532227 C-98.20005933 61.61999404 -98.33163399 67.0346252 -98.46484375 72.44921875 C-98.48665144 73.33615103 -98.50845913 74.22308331 -98.53092766 75.13689232 C-98.84138824 87.66652218 -99.2084444 100.19208983 -99.69297791 112.71635437 C-100.08542183 123.14530231 -100.09671672 133.5653404 -100 144 C-94.89118974 143.88205478 -89.78258636 143.75782953 -84.67407227 143.62768555 C-82.93485712 143.58427427 -81.19559765 143.54260388 -79.45629883 143.50268555 C-76.96161512 143.44513232 -74.4671559 143.3813958 -71.97265625 143.31640625 C-70.7992141 143.29133751 -70.7992141 143.29133751 -69.60206604 143.26576233 C-66.00128219 143.49351269 -66.00128219 143.49351269 -63 142 C-62.91138008 139.1883662 -62.88477645 136.40141745 -62.90234375 133.58984375 C-62.9037587 132.74780899 -62.90517365 131.90577423 -62.90663147 131.03822327 C-62.91224737 128.33794665 -62.92480252 125.63775172 -62.9375 122.9375 C-62.94251295 121.11132932 -62.94707621 119.28515734 -62.95117188 117.45898438 C-62.96222196 112.97262458 -62.97949721 108.48632616 -63 104 C-62.34 104 -61.68 104 -61 104 C-60.79375 104.65097656 -60.5875 105.30195313 -60.375 105.97265625 C-58.45270665 110.20497825 -55.75867634 113.71220241 -53 117.4375 C-51.82907723 119.03750444 -50.65850882 120.63776827 -49.48828125 122.23828125 C-48.90385254 123.03443848 -48.31942383 123.8305957 -47.71728516 124.65087891 C-45.17946121 128.12243733 -42.68125465 131.62171543 -40.1875 135.125 C-39.36849179 136.27343908 -38.54948162 137.42187675 -37.73046875 138.5703125 C-37.15941406 139.37210938 -36.58835938 140.17390625 -36 141 C-22.60157321 138.97875162 -9.29552259 136.61279674 4 134 C2.70891809 130.60997279 1.24218459 127.47839169 -0.546875 124.32421875 C-1.05541016 123.42533936 -1.56394531 122.52645996 -2.08789062 121.6003418 C-2.63638672 120.639104 -3.18488281 119.67786621 -3.75 118.6875 C-4.31912109 117.68436768 -4.88824219 116.68123535 -5.47460938 115.64770508 C-10.31828346 107.13496107 -15.25106803 98.67451424 -20.24121094 90.24682617 C-23.75355119 84.27945279 -26.99212149 78.23727404 -30 72 C-23.90177421 63.31964257 -17.7786267 54.65894838 -11.5625 46.0625 C-11.03140625 45.32773438 -10.5003125 44.59296875 -9.953125 43.8359375 C-7.09584659 39.88657432 -4.23064355 35.94310935 -1.359375 32.00390625 C-0.76568115 31.18720459 -0.1719873 30.37050293 0.43969727 29.52905273 C1.57830149 27.96293515 2.7192979 26.39855307 3.86303711 24.83618164 C4.37616455 24.12969482 4.88929199 23.42320801 5.41796875 22.6953125 C6.09508911 21.7674292 6.09508911 21.7674292 6.78588867 20.82080078 C8.03682722 18.94477029 9.03494153 17.03575361 10 15 C0.21224048 13.45556166 -9.48414612 12.48940131 -19.375 11.875 C-20.70836549 11.78825327 -22.04169913 11.70101558 -23.375 11.61328125 C-26.58305631 11.40406019 -29.79133931 11.19969851 -33 11 Z M14.75 33.375 C3.3513767 47.57497988 -1.59851118 64.40739581 -1.5 82.4375 C-1.49572998 83.62384033 -1.49145996 84.81018066 -1.48706055 86.0324707 C-1.31872606 94.67106361 -0.39793143 101.42444228 4 109 C4.40734375 109.75667969 4.8146875 110.51335937 5.234375 111.29296875 C12.29555738 123.51248241 23.24100423 132.5460832 36.86767578 136.54858398 C52.3952324 139.83578941 68.89801011 136.44803028 83 130 C84.25835166 116.64005361 85.35541223 103.42668441 85 90 C84.03578125 90.34933594 83.0715625 90.69867188 82.078125 91.05859375 C80.80211997 91.51833086 79.52607626 91.97796063 78.25 92.4375 C77.61578125 92.66759766 76.9815625 92.89769531 76.328125 93.13476562 C67.88930062 96.16746814 58.39452509 97.88859168 49.56640625 95.28125 C45.77762513 93.26056673 43.81085684 90.80436494 42 87 C41.68374778 84.27054393 41.52204488 81.84529077 41.5625 79.125 C41.57152344 78.40900635 41.58054687 77.6930127 41.58984375 76.95532227 C41.84903702 69.09942632 44.11622969 65.64334551 49.6875 60.25 C53.79146494 56.82234389 57.87772909 55.3134028 63 54 C63.99 53.67 64.98 53.34 66 53 C67.33525717 52.92026524 68.67412083 52.89228662 70.01171875 52.90234375 C71.14770508 52.90717773 71.14770508 52.90717773 72.30664062 52.91210938 C73.48516602 52.92467773 73.48516602 52.92467773 74.6875 52.9375 C75.88342773 52.94426758 75.88342773 52.94426758 77.10351562 52.95117188 C79.06904257 52.9629415 81.03453085 52.98087652 83 53 C83.67769467 48.689159 84.34014117 44.37610416 85 40.0625 C85.28617188 38.24395508 85.28617188 38.24395508 85.578125 36.38867188 C86.57158833 29.84245816 87.22854496 23.62066179 87 17 C79.12749519 13.05422214 72.28583048 12.41150991 63.5625 12.5625 C62.41201172 12.55541016 61.26152344 12.54832031 60.07617188 12.54101562 C42.14086604 12.67311703 26.82785248 20.0423057 14.75 33.375 Z M191 14 C190.2062725 37.37563917 190.2062725 37.37563917 189.68359375 60.75390625 C189.66281265 62.0372435 189.64203156 63.32058075 189.62062073 64.64280701 C189.57789235 67.29757841 189.53715887 69.95235903 189.49731445 72.60717773 C189.43745221 76.56566029 189.37230055 80.52403169 189.30664062 84.48242188 C189.02239044 102.32499978 188.96256703 120.15516648 189 138 C203.19 138 217.38 138 232 138 C232 120.84 232 103.68 232 86 C242.23 86 252.46 86 263 86 C263.33 77.09 263.66 68.18 264 59 C253.44 59 242.88 59 232 59 C232 55.37 232 51.74 232 48 C233.588125 48.020625 235.17625 48.04125 236.8125 48.0625 C242.51157677 48.0625 248.18481078 47.85203652 253.875 47.5625 C254.68300049 47.52326416 255.49100098 47.48402832 256.32348633 47.44360352 C260.61588439 47.21188251 264.76846114 46.80957094 269 46 C269.3494129 43.85672624 269.67819631 41.71009265 270 39.5625 C270.2784375 37.77005859 270.2784375 37.77005859 270.5625 35.94140625 C271.20765113 28.65465469 271 21.31525586 271 14 C244.6 14 218.2 14 191 14 Z M-198 15 C-198.85552644 30.60605134 -198.85552644 30.60605134 -199.0625 46.1875 C-199.041875 49.425625 -199.02125 52.66375 -199 56 C-186.625 55.505 -186.625 55.505 -174 55 C-174 82.06 -174 109.12 -174 137 C-168.55445601 137 -163.38520772 136.96355034 -157.99609375 136.5625 C-156.76181641 136.47226562 -155.52753906 136.38203125 -154.25585938 136.2890625 C-152.99580078 136.19367188 -151.73574219 136.09828125 -150.4375 136 C-149.14263672 135.90460938 -147.84777344 135.80921875 -146.51367188 135.7109375 C-143.34221899 135.47688194 -140.17102072 135.23982778 -137 135 C-136.2277757 132.20274977 -135.81917391 129.5792486 -135.64282227 126.68481445 C-135.58929092 125.8390535 -135.53575958 124.99329254 -135.48060608 124.12190247 C-135.42642014 123.21155746 -135.37223419 122.30121246 -135.31640625 121.36328125 C-135.19208377 119.40299311 -135.06773388 117.44270671 -134.94335938 115.48242188 C-134.75342707 112.41796989 -134.56500182 109.35343133 -134.37768555 106.28881836 C-133.68217204 94.99202077 -132.84390726 83.77103688 -131.43041992 72.5402832 C-130.91924466 68.33577241 -130.60357266 64.16609413 -130.375 59.9375 C-130.25125 57.648125 -130.1275 55.35875 -130 53 C-121.42 52.67 -112.84 52.34 -104 52 C-104 39.79 -104 27.58 -104 15 C-135.02 15 -166.04 15 -198 15 Z M90 15 C89.15268616 31.16676784 89.15268616 31.16676784 88.9375 47.3125 C88.94201172 48.17166016 88.94652344 49.03082031 88.95117188 49.91601562 C88.96250164 51.94404408 88.98039561 53.97203465 89 56 C90.89574215 56.02792419 92.79161725 56.04679446 94.6875 56.0625 C95.74324219 56.07410156 96.79898437 56.08570313 97.88671875 56.09765625 C103.60125752 55.96198344 109.3006879 55.43840862 115 55 C115 81.73 115 108.46 115 136 C132.88310285 136.48127041 132.88310285 136.48127041 151 135 C152.91543608 133.08456392 152.46049586 129.66906615 152.66430664 127.11279297 C152.72297409 126.3923732 152.78164154 125.67195343 152.84208679 124.92970276 C153.03595075 122.53420262 153.22317201 120.13823374 153.41015625 117.7421875 C153.54292948 116.0788421 153.67602602 114.41552248 153.80943298 112.75222778 C154.08878931 109.25691373 154.36501135 105.7613704 154.63891602 102.265625 C154.98922353 97.79649509 155.34595237 93.32790769 155.7049036 88.85946465 C155.98073312 85.41943257 156.25373901 81.97918101 156.52584648 78.53885269 C156.6562992 76.89225704 156.78747184 75.24571826 156.91938972 73.59923935 C157.1040495 71.28755858 157.28505738 68.97561954 157.46508789 66.66357422 C157.56866104 65.34976776 157.67223419 64.0359613 157.77894592 62.68234253 C157.99236411 59.12719945 158 55.56154316 158 52 C166.58 52 175.16 52 184 52 C184 39.79 184 27.58 184 15 C152.98 15 121.96 15 90 15 Z " fill="#F8F9F9" transform="translate(223,174)"/>
<path d="M0 0 C6.27 0 12.54 0 19 0 C19.0093457 2.28131836 19.01869141 4.56263672 19.02832031 6.91308594 C19.06208138 14.44897505 19.11762526 21.98459005 19.18390274 29.52025986 C19.22341898 34.08936758 19.25558699 38.65828139 19.27099609 43.22753906 C19.28613555 47.63683555 19.32053229 52.04559908 19.36830902 56.45465851 C19.38315093 58.13712177 19.39104262 59.81966112 19.39188385 61.50218964 C19.39424693 63.85848367 19.42127041 66.21329685 19.45410156 68.56933594 C19.4490712 69.26561096 19.44404083 69.96188599 19.43885803 70.67926025 C19.51131011 74.03801571 19.80327987 75.74586382 21.88490295 78.43504333 C24.4829754 80.35735267 25.83569002 80.47915235 29.04296875 80.42578125 C30.51878418 80.41430054 30.51878418 80.41430054 32.02441406 80.40258789 C33.06823242 80.37285889 34.11205078 80.34312988 35.1875 80.3125 C36.25581055 80.29630615 37.32412109 80.2801123 38.42480469 80.26342773 C53.84783145 80.26051839 53.84783145 80.26051839 69 78 C69.33 108.69 69.66 139.38 70 171 C77.40014913 168.55323897 77.40014913 168.55323897 81.6796875 163.6484375 C83.16906092 161.78892394 84.79218862 160.39615924 86.625 158.875 C100.6269129 146.87336038 111.39300542 131.59787322 121 116 C121.60585938 115.03707031 122.21171875 114.07414062 122.8359375 113.08203125 C128.55061968 103.70840098 133.52160337 93.4351899 137 83 C137.90363281 82.90203125 138.80726563 82.8040625 139.73828125 82.703125 C140.91777344 82.55359375 142.09726562 82.4040625 143.3125 82.25 C145.07013672 82.04117188 145.07013672 82.04117188 146.86328125 81.828125 C150.52460297 80.86149959 151.11378571 80.17521136 153 77 C153.46549028 74.74785213 153.46549028 74.74785213 153.43237305 72.32324219 C153.46206429 70.94226349 153.46206429 70.94226349 153.49235535 69.53338623 C153.49874527 68.54783752 153.50513519 67.56228882 153.51171875 66.546875 C153.52966995 65.53151672 153.54762115 64.51615845 153.56611633 63.47003174 C153.62025707 60.23006328 153.65412762 56.99024247 153.6875 53.75 C153.72066969 51.55206277 153.75515902 49.35414504 153.79101562 47.15625 C153.87598597 41.77093979 153.94277959 36.38567367 154 31 C159.28 31 164.56 31 170 31 C169.95566912 54.16288609 165.79447773 76.52804124 157 98 C156.57944336 99.05477539 156.57944336 99.05477539 156.15039062 100.13085938 C149.74795722 116.03094234 141.14588325 130.74189878 130.9375 144.5 C130.2873291 145.37809326 130.2873291 145.37809326 129.62402344 146.27392578 C121.03680238 157.47965768 110.7711713 167.3913939 100.79223633 177.33813477 C98.80107223 179.32389676 96.81536779 181.3150074 94.83007812 183.30664062 C83.66292344 194.47972314 83.66292344 194.47972314 77.74291992 199.5065918 C74.47464872 202.3069861 71.37670518 205.29370123 68.25 208.25 C63.34561524 212.87074527 58.42138999 217.4651091 53.4375 222 C49.7330047 225.37953957 46.13976493 228.82380587 42.62890625 232.40234375 C40.87668722 234.12094707 39.05112859 235.71563335 37.1875 237.3125 C33.97666245 240.07618029 30.97732835 242.98619596 28 246 C25.10408042 248.93118191 22.19757429 251.76403174 19.0625 254.4375 C15.58012377 257.42035505 12.30932593 260.5782607 9.0625 263.8125 C8.57724854 264.29323975 8.09199707 264.77397949 7.59204102 265.26928711 C4.96575729 267.88595803 4.96575729 267.88595803 3 271 C2.01 271 1.02 271 0 271 C-1.04876798 266.7071681 -1.14828179 262.53601372 -1.14717102 258.14331055 C-1.15084771 257.3585242 -1.1545244 256.57373785 -1.1583125 255.7651701 C-1.16931398 253.13901296 -1.17318707 250.51289544 -1.17700195 247.88671875 C-1.183269 246.002491 -1.18991601 244.11826448 -1.19691467 242.23403931 C-1.21791897 236.05186824 -1.22830982 229.86969701 -1.23828125 223.6875 C-1.24232938 221.5587869 -1.24644632 219.43007392 -1.25063133 217.30136108 C-1.26967058 207.30555491 -1.28390744 197.30975609 -1.2922433 187.31393528 C-1.30202832 175.77122559 -1.3283861 164.22870703 -1.36874419 152.68606472 C-1.39886954 143.7645142 -1.41370855 134.8430186 -1.41702431 125.92141819 C-1.41937778 120.59200619 -1.42837772 115.26279867 -1.45348549 109.93344116 C-1.47671022 104.9232436 -1.48102205 99.91338603 -1.47072411 94.90314865 C-1.47022736 93.06369269 -1.47658846 91.22422029 -1.49028015 89.38481522 C-1.50791832 86.87502955 -1.5009336 84.36647502 -1.48774719 81.85668945 C-1.49871644 81.12760219 -1.50968568 80.39851492 -1.52098733 79.6473341 C-1.4589126 74.75939474 -0.25125239 72.55832183 3 69 C3.81477357 65.81698584 3.81477357 65.81698584 4.046875 62.328125 C4.16981934 61.03100586 4.29276367 59.73388672 4.41943359 58.39746094 C4.5308635 57.01507344 4.64103127 55.63258368 4.75 54.25 C4.87144826 52.84403577 4.99335696 51.43811124 5.11572266 50.03222656 C7.68950117 33.93765632 7.68950117 33.93765632 4.6640625 19.140625 C2.88426317 17.80834899 2.88426317 17.80834899 0 17 C0 11.39 0 5.78 0 0 Z " fill="#1975BE" transform="translate(310,238)"/>
<path d="M0 0 C1.65 0.66 3.3 1.32 5 2 C5.02335902 23.93123682 5.04099395 45.8624716 5.05181217 67.79371834 C5.05696874 77.97674093 5.06399928 88.1597558 5.07543945 98.34277344 C5.08540579 107.21814888 5.09185809 116.09351872 5.09408849 124.96889961 C5.09539228 129.66844302 5.09845719 134.36797042 5.10573006 139.0675087 C5.112521 143.49151508 5.11461068 147.91549886 5.11310768 152.33950996 C5.11338262 153.96244873 5.1153695 155.58538827 5.11920547 157.20832253 C5.12419073 159.42643579 5.12298047 161.64446405 5.12025452 163.86257935 C5.12163721 165.72367938 5.12163721 165.72367938 5.12304783 167.6223774 C5.0059341 170.83711078 4.60842236 173.84485914 4 177 C3.39003174 176.97381592 2.78006348 176.94763184 2.15161133 176.9206543 C-0.62782758 176.81634281 -3.40685439 176.75157018 -6.1875 176.6875 C-7.14720703 176.64560547 -8.10691406 176.60371094 -9.09570312 176.56054688 C-14.9518252 176.42980502 -14.9518252 176.42980502 -19.97265625 179.21875 C-22.69790249 182.9569139 -22.69790249 182.9569139 -25.25 186.8125 C-26.14311011 188.2235219 -27.05305286 189.62452932 -28 191 C-28.33 191 -28.66 191 -29 191 C-29.12955078 190.07767578 -29.12955078 190.07767578 -29.26171875 189.13671875 C-29.40222656 188.32847656 -29.54273438 187.52023438 -29.6875 186.6875 C-29.81511719 185.88699219 -29.94273437 185.08648437 -30.07421875 184.26171875 C-31.01888125 181.31016339 -31.01888125 181.31016339 -36 179 C-45.9 178.34 -55.8 177.68 -66 177 C-66.33 150.27 -66.66 123.54 -67 96 C-68.98 98.31 -70.96 100.62 -73 103 C-74.70601335 104.46934098 -76.45274303 105.89378769 -78.25 107.25 C-81.16180915 109.45591603 -82.95567756 110.93351633 -85 114 C-85.66 114 -86.32 114 -87 114 C-87.2371875 114.54785156 -87.474375 115.09570312 -87.71875 115.66015625 C-89.32353768 118.59085082 -91.32445519 120.90051183 -93.5 123.4375 C-104.78514106 136.79192743 -114.54140668 150.42226897 -122.12353516 166.26879883 C-122.73571616 167.5385136 -123.36609327 168.79961702 -124.0144043 170.05126953 C-125.04435898 172.02337247 -125.04435898 172.02337247 -125.91723633 174.24169922 C-127.06543354 176.65219357 -127.99264746 178.22772012 -130 180 C-134.14068969 180.98544215 -138.08660499 180.75686329 -142.3125 180.5 C-143.43462891 180.46390625 -144.55675781 180.4278125 -145.71289062 180.390625 C-148.47874621 180.29646821 -151.23762241 180.16512661 -154 180 C-152.76442366 173.11509404 -150.6424386 167.77498347 -147.25 161.6875 C-146.3439428 160.02013356 -145.43899281 158.35216498 -144.53515625 156.68359375 C-144.0983252 155.8829248 -143.66149414 155.08225586 -143.21142578 154.25732422 C-141.61984609 151.29163583 -140.15127085 148.28073182 -138.6875 145.25 C-136.48316848 140.78545251 -133.97124927 136.98772929 -131 133 C-130.38511719 131.906875 -129.77023438 130.81375 -129.13671875 129.6875 C-123.10928304 119.00747937 -114.44121157 109.81425586 -106 101 C-105.29254639 100.25169922 -105.29254639 100.25169922 -104.57080078 99.48828125 C-86.11441524 80.03813841 -86.11441524 80.03813841 -77 77 C-77 76.34 -77 75.68 -77 75 C-75.36567245 73.52230782 -73.66523632 72.11730681 -71.9375 70.75 C-68.54079368 68.0405139 -65.18686352 65.32199855 -61.9375 62.4375 C-59 60 -59 60 -57 60 C-56.61714844 59.13036621 -56.61714844 59.13036621 -56.2265625 58.24316406 C-54.87415223 55.76984688 -53.36267476 54.10397891 -51.375 52.109375 C-50.31539062 51.04589844 -50.31539062 51.04589844 -49.234375 49.9609375 C-48.49703125 49.23132812 -47.7596875 48.50171875 -47 47.75 C-46.26265625 47.00492188 -45.5253125 46.25984375 -44.765625 45.4921875 C-44.05921875 44.78835937 -43.3528125 44.08453125 -42.625 43.359375 C-41.97789062 42.71452148 -41.33078125 42.06966797 -40.6640625 41.40527344 C-39 40 -39 40 -37 40 C-36.61714844 39.13036621 -36.61714844 39.13036621 -36.2265625 38.24316406 C-34.87415223 35.76984688 -33.36267476 34.10397891 -31.375 32.109375 C-30.31539062 31.04589844 -30.31539062 31.04589844 -29.234375 29.9609375 C-28.49703125 29.23132813 -27.7596875 28.50171875 -27 27.75 C-26.26265625 27.00492188 -25.5253125 26.25984375 -24.765625 25.4921875 C-24.05921875 24.78835937 -23.3528125 24.08453125 -22.625 23.359375 C-21.97789062 22.71452148 -21.33078125 22.06966797 -20.6640625 21.40527344 C-19 20 -19 20 -17 20 C-16.79246094 19.46375 -16.58492187 18.9275 -16.37109375 18.375 C-14.46017865 15.06492483 -11.7953222 12.62558898 -9.0625 10 C-4.19310098 5.30106536 -4.19310098 5.30106536 0 0 Z " fill="#1C76BE" transform="translate(204,0)"/>
<path d="M0 0 C5.48177927 0.37981225 10.96261257 0.77071583 16.44287109 1.171875 C18.30691094 1.30675769 20.17117206 1.43861819 22.03564453 1.56738281 C24.71711243 1.75309982 27.39759409 1.94970643 30.078125 2.1484375 C30.91055725 2.20373627 31.7429895 2.25903503 32.60064697 2.31600952 C33.38115417 2.37592072 34.16166138 2.43583191 34.96582031 2.49755859 C35.99174286 2.57083878 35.99174286 2.57083878 37.03839111 2.64559937 C39.29485935 3.05327175 41.00289397 3.89328232 43 5 C37.58657938 12.60078471 32.15237206 20.18610901 26.6875 27.75 C26.14722168 28.49854248 25.60694336 29.24708496 25.05029297 30.01831055 C22.18412591 33.98701172 19.30927351 37.94905847 16.421875 41.90234375 C15.54656128 43.10455566 15.54656128 43.10455566 14.65356445 44.33105469 C13.54304955 45.85597856 12.42978339 47.37890425 11.31323242 48.89941406 C10.3117875 50.2766993 9.32715643 51.66641663 8.36230469 53.06958008 C7 55 7 55 5.53613281 56.6706543 C3.97308229 58.49101438 3.97308229 58.49101438 3 62 C4.30657981 66.19127902 6.56691963 69.72541412 8.875 73.4375 C9.51888672 74.52554932 10.16277344 75.61359863 10.82617188 76.73461914 C12.18092676 79.02002744 13.54406518 81.29695484 14.92480469 83.56640625 C17.58664896 87.95113211 20.14200497 92.39657503 22.70751953 96.83813477 C24.41002964 99.78193289 26.12286214 102.71925655 27.84375 105.65234375 C28.36324219 106.53776855 28.88273437 107.42319336 29.41796875 108.33544922 C30.51197919 110.17804643 31.6196839 112.01255653 32.73828125 113.84033203 C33.28871094 114.73993652 33.83914062 115.63954102 34.40625 116.56640625 C34.90447266 117.37150635 35.40269531 118.17660645 35.91601562 119.00610352 C37 121 37 121 37 123 C8.84846857 128.5566411 8.84846857 128.5566411 -3 130 C-7.34590747 124.00903748 -11.67713301 118.00760625 -16 112 C-16.59184082 111.17870605 -17.18368164 110.35741211 -17.79345703 109.51123047 C-19.47180507 107.17791734 -21.14320889 104.83979816 -22.8125 102.5 C-23.33360352 101.7769165 -23.85470703 101.05383301 -24.39160156 100.30883789 C-28 95.2295584 -28 95.2295584 -28 93 C-28.66 93 -29.32 93 -30 93 C-29.99476318 94.145896 -29.98952637 95.29179199 -29.98413086 96.47241211 C-29.96608283 100.70840682 -29.95456872 104.94439812 -29.94506836 109.18041992 C-29.94002769 111.01668875 -29.93319523 112.85295354 -29.92456055 114.68920898 C-29.91248328 117.32276401 -29.90676919 119.95626616 -29.90234375 122.58984375 C-29.89718246 123.41588608 -29.89202118 124.24192841 -29.88670349 125.09300232 C-29.88650795 127.06236368 -29.93795848 129.03161614 -30 131 C-32.03123075 133.03123075 -36.17768866 132.25669618 -38.97265625 132.31640625 C-40.16912025 132.3475779 -40.16912025 132.3475779 -41.38975525 132.37937927 C-43.94724611 132.44496158 -46.5048428 132.50379967 -49.0625 132.5625 C-50.79232882 132.60567699 -52.52214679 132.64929101 -54.25195312 132.69335938 C-58.5011926 132.80065172 -62.7505389 132.90189426 -67 133 C-67.10719089 121.43529438 -67.00961831 109.90090344 -66.5625 98.34375 C-66.11389502 86.04727652 -65.7672947 73.75008648 -65.46484375 61.44921875 C-65.43216998 60.12112403 -65.43216998 60.12112403 -65.39883614 58.76619911 C-65.26562027 53.3309077 -65.13460882 47.89556474 -65.00421143 42.46020508 C-64.89126287 37.76576134 -64.77660195 33.07135941 -64.66210938 28.37695312 C-64.43978381 19.25134095 -64.21927098 10.12568604 -64 1 C-42.55495193 0.90527341 -42.55495193 0.90527341 -32.75 1.5 C-31.88632813 1.54769531 -31.02265625 1.59539062 -30.1328125 1.64453125 C-28.08826335 1.75811731 -26.04407776 1.87822515 -24 2 C-23.83368661 14.03000164 -24.3475014 25.9895138 -25 38 C-24.52691406 37.27522461 -24.05382812 36.55044922 -23.56640625 35.80371094 C-21.77015388 33.05243355 -19.97337622 30.30150061 -18.17626953 27.55078125 C-17.40620995 26.37187724 -16.63634557 25.1928457 -15.86669922 24.01367188 C-10.62221509 15.97898507 -5.33741511 7.97340009 0 0 Z " fill="#010101" transform="translate(190,185)"/>
<path d="M0 0 C1.1859375 -0.02900391 2.371875 -0.05800781 3.59375 -0.08789062 C11.21263184 -0.14255148 17.05946345 0.8479519 23.875 4.3125 C24.1463982 12.1745666 23.0957019 19.61776934 21.875 27.375 C21.68421875 28.62216797 21.4934375 29.86933594 21.296875 31.15429688 C20.82887418 34.20800224 20.35477609 37.26062644 19.875 40.3125 C18.76382813 40.27769531 17.65265625 40.24289063 16.5078125 40.20703125 C5.60568575 39.96669643 -4.27759763 40.03796916 -13.125 47.3125 C-19.15853658 53.49624911 -21.31852952 57.37670421 -21.4375 66.125 C-21.46650391 66.82431641 -21.49550781 67.52363281 -21.52539062 68.24414062 C-21.58771361 73.36900732 -20.62342673 76.33833365 -17.125 80.3125 C-10.59709138 84.6069378 -3.65824157 84.0013805 3.875 83.3125 C10.11130342 81.90685701 15.96460869 79.71562614 21.875 77.3125 C22.23041223 90.73918441 21.13335166 103.95255361 19.875 117.3125 C17.35741883 118.30079417 14.83645276 119.2782226 12.3125 120.25 C11.60802734 120.52779297 10.90355469 120.80558594 10.17773438 121.09179688 C-1.18934873 125.4395752 -18.37946387 127.16765502 -29.9375 122.5625 C-31.34822796 121.84090641 -32.74604222 121.09309346 -34.125 120.3125 C-35.12080078 119.89677734 -35.12080078 119.89677734 -36.13671875 119.47265625 C-49.19704908 113.90469617 -56.60024157 102.22724948 -62.14453125 89.79296875 C-67.61040132 75.96497078 -65.5964327 55.85809553 -60.125 42.3125 C-59.691875 41.01119141 -59.691875 41.01119141 -59.25 39.68359375 C-53.88022493 24.36535149 -42.57101406 12.45924602 -28.125 5.3125 C-18.39926064 1.27197978 -10.5024565 0.08397487 0 0 Z " fill="#010101" transform="translate(286.125,186.6875)"/>
<path d="M0 0 C26.4 0 52.8 0 80 0 C80 19.125 80 19.125 79 25.5625 C78.7215625 27.42068359 78.7215625 27.42068359 78.4375 29.31640625 C78.293125 30.20199219 78.14875 31.08757812 78 32 C72.95729572 32.96476175 67.99061545 33.31408992 62.875 33.5625 C62.04057373 33.6049585 61.20614746 33.64741699 60.34643555 33.69116211 C53.89138378 34.00074049 47.46294724 34.08393438 41 34 C41 37.63 41 41.26 41 45 C51.56 45 62.12 45 73 45 C72.67 53.91 72.34 62.82 72 72 C61.77 72 51.54 72 41 72 C41 89.16 41 106.32 41 124 C26.81 124 12.62 124 -2 124 C-2.04020297 104.8346697 -1.94554901 85.68598823 -1.62768555 66.52319336 C-1.56257313 62.56694313 -1.50273746 58.61063687 -1.44335938 54.65429688 C-1.40173976 52.02082167 -1.35904989 49.38736523 -1.31640625 46.75390625 C-1.29969376 45.62996964 -1.28298126 44.50603302 -1.26576233 43.34803772 C-1.01764703 28.89126546 -0.46632061 14.45593876 0 0 Z " fill="#010101" transform="translate(414,188)"/>
<path d="M0 0 C3.79165074 -0.0289337 7.58327327 -0.04677601 11.375 -0.0625 C12.45523438 -0.07087891 13.53546875 -0.07925781 14.6484375 -0.08789062 C16.1953125 -0.09272461 16.1953125 -0.09272461 17.7734375 -0.09765625 C18.72653809 -0.10289307 19.67963867 -0.10812988 20.66162109 -0.11352539 C23 0 23 0 25 1 C25.77426193 2.82761829 26.46776537 4.68961111 27.125 6.5625 C34.64247364 26.60909636 45.59595619 46.12770567 60 62 C61.1260323 63.31161446 62.25111553 64.62404465 63.375 65.9375 C64.57915826 67.29538059 65.7881561 68.64897403 67 70 C67.44102051 70.49677246 67.88204102 70.99354492 68.33642578 71.50537109 C76.01775134 80.22943152 76.01775134 80.22943152 84.98046875 87.56640625 C87.41643844 89.29561491 89.61394687 91.23524017 91.875 93.1875 C99.3312356 99.34201849 107.64771172 104.16751271 116 109 C116.7410498 109.42933838 117.48209961 109.85867676 118.24560547 110.30102539 C138.78485119 121.97196131 161.06868289 128.27898019 184.31591797 131.609375 C186.58307124 131.93932272 188.83939387 132.30262749 191.09765625 132.6875 C199.87615361 134.03948248 208.56614311 134.2019973 217.4375 134.25 C219.23429199 134.26401855 219.23429199 134.26401855 221.06738281 134.27832031 C226.96616152 134.25687021 232.41006271 133.99855935 238.11743164 132.44702148 C241.14186464 131.72886083 243.90554267 131.80659642 247 132 C249.30009773 134.30009773 248.18537365 139.84790666 248.1875 142.9375 C248.19974609 143.87013672 248.21199219 144.80277344 248.22460938 145.76367188 C248.22654297 146.65505859 248.22847656 147.54644531 248.23046875 148.46484375 C248.23457764 149.285896 248.23868652 150.10694824 248.24291992 150.95288086 C248 153 248 153 246 155 C243.223798 155.31122576 240.53970271 155.49983217 237.75390625 155.6015625 C236.91074356 155.63827057 236.06758087 155.67497864 235.1988678 155.71279907 C181.03240454 157.91934298 181.03240454 157.91934298 156 151 C154.63633301 150.63914307 154.63633301 150.63914307 153.24511719 150.27099609 C116.55398681 140.45641493 84.28046778 121.21887492 57 95 C56.10015381 94.14100098 56.10015381 94.14100098 55.18212891 93.26464844 C46.59103177 85.02228361 39.01132607 76.62103063 32 67 C31.19691406 65.96875 30.39382812 64.9375 29.56640625 63.875 C25.49341987 58.63161523 22.02995911 53.57152688 19.23828125 47.546875 C17.8389806 44.66881815 16.2231499 41.98518807 14.5625 39.25 C7.35285494 26.9936034 2.72877613 13.92662486 0 0 Z " fill="#1F78BF" transform="translate(47,319)"/>
<path d="M0 0 C31.02 0 62.04 0 94 0 C94 12.21 94 24.42 94 37 C85.42 37.33 76.84 37.66 68 38 C67.71125 42.0425 67.4225 46.085 67.125 50.25 C66.53070978 58.43103638 65.88203992 66.59486074 65 74.75 C63.89148528 85.02318475 63.29340418 95.3303577 62.69726562 105.64355469 C62.5822168 107.56796387 62.5822168 107.56796387 62.46484375 109.53125 C62.399021 110.68173828 62.33319824 111.83222656 62.26538086 113.01757812 C62.0466558 115.47566953 61.69593204 117.64198456 61 120 C56.52122488 120.33873468 52.04192703 120.67000737 47.5625 121 C46.30244141 121.09539062 45.04238281 121.19078125 43.74414062 121.2890625 C42.50986328 121.37929688 41.27558594 121.46953125 40.00390625 121.5625 C38.87799072 121.64628906 37.7520752 121.73007812 36.59204102 121.81640625 C32.39972025 122.03068106 28.19779312 122 24 122 C24 94.94 24 67.88 24 40 C11.625 40.495 11.625 40.495 -1 41 C-1.020625 37.761875 -1.04125 34.52375 -1.0625 31.1875 C-1.071604 30.21192139 -1.08070801 29.23634277 -1.09008789 28.23120117 C-1.11805443 18.75956499 -0.50099816 9.518965 0 0 Z " fill="#020202" transform="translate(25,189)"/>
<path d="M0 0 C31.02 0 62.04 0 94 0 C94 12.21 94 24.42 94 37 C85.42 37 76.84 37 68 37 C67.82984375 40.69316406 67.82984375 40.69316406 67.65625 44.4609375 C66.98525484 57.75690474 65.89929845 71.02521631 64.84326172 84.29492188 C64.55262172 87.94949481 64.26859643 91.60455147 63.98607635 95.2597599 C63.76615652 98.0925887 63.54210993 100.92507964 63.31684875 103.75748825 C63.15846744 105.7610119 63.00419225 107.76485876 62.84997559 109.76870728 C62.70477478 111.56856583 62.70477478 111.56856583 62.55664062 113.40478516 C62.47305298 114.46444489 62.38946533 115.52410461 62.30334473 116.61587524 C62 119 62 119 61 120 C49.34589959 121.96254082 36.42030611 121 25 121 C25 94.27 25 67.54 25 40 C18.565 40.495 18.565 40.495 12 41 C9.56309768 41.05785618 7.12494186 41.08928508 4.6875 41.0625 C3.59824219 41.05347656 2.50898438 41.04445312 1.38671875 41.03515625 C0.20529297 41.01775391 0.20529297 41.01775391 -1 41 C-1.02799478 38.10409536 -1.04729229 35.20848161 -1.0625 32.3125 C-1.07087891 31.53455078 -1.07925781 30.75660156 -1.08789062 29.95507812 C-1.12660789 19.92730731 -0.47921344 10.06348233 0 0 Z " fill="#010101" transform="translate(313,189)"/>
<path d="M0 0 C1.02861649 -0.00983917 2.05723297 -0.01967834 3.11701965 -0.02981567 C46.50225026 -0.35947733 84.94150298 5.58273484 123.1953125 27.23828125 C123.88874756 27.60767822 124.58218262 27.9770752 125.29663086 28.35766602 C131.0008444 31.42173906 136.19757102 34.92932788 141.3828125 38.80078125 C142.21377441 39.42009521 143.04473633 40.03940918 143.90087891 40.67749023 C177.67906644 66.07787976 205.34839651 97.72663738 221.1953125 137.23828125 C221.5253125 137.89828125 221.8553125 138.55828125 222.1953125 139.23828125 C222.1953125 141.21828125 222.1953125 143.19828125 222.1953125 145.23828125 C214.6053125 145.23828125 207.0153125 145.23828125 199.1953125 145.23828125 C194.9453125 137.17578125 194.9453125 137.17578125 193.63183594 134.67944336 C189.22785719 126.34362593 184.47752788 118.61249115 178.99804688 110.93554688 C178.52302734 110.25814453 178.04800781 109.58074219 177.55859375 108.8828125 C176.91337769 107.97559448 176.91337769 107.97559448 176.25512695 107.05004883 C175.1953125 105.23828125 175.1953125 105.23828125 174.65478516 103.06567383 C174.50315918 102.46263428 174.3515332 101.85959473 174.1953125 101.23828125 C172.86992129 100.5559614 171.53454483 99.89301706 170.1953125 99.23828125 C168.26417064 97.31554785 166.4386926 95.39581027 164.6328125 93.36328125 C164.15134766 92.83347656 163.66988281 92.30367188 163.17382812 91.7578125 C156.1953125 84.02097124 156.1953125 84.02097124 156.1953125 81.23828125 C155.3909375 80.91150391 155.3909375 80.91150391 154.5703125 80.578125 C151.36112571 78.76767916 148.84998317 76.3207471 146.1953125 73.80078125 C142.16246386 69.97703661 142.16246386 69.97703661 137.8203125 66.515625 C137.0159375 65.88333984 137.0159375 65.88333984 136.1953125 65.23828125 C136.1953125 64.57828125 136.1953125 63.91828125 136.1953125 63.23828125 C135.50824219 63.00238281 134.82117188 62.76648438 134.11328125 62.5234375 C130.60172406 60.97684805 127.61050655 58.90002285 124.5078125 56.67578125 C120.48560795 53.74026595 120.48560795 53.74026595 116.1953125 51.23828125 C116.1953125 50.57828125 116.1953125 49.91828125 116.1953125 49.23828125 C115.39867187 49.00367188 114.60203125 48.7690625 113.78125 48.52734375 C110.15840282 47.22501307 106.85520369 45.63662714 103.42089844 43.91259766 C69.68517 27.05740176 27.84219421 17.38555466 -9.8515625 23.75390625 C-13.58968653 24.3670377 -17.02926507 24.4648066 -20.8046875 24.23828125 C-22.99020044 22.05276831 -22.40868818 17.45019279 -22.6171875 14.42578125 C-22.69388672 13.60529297 -22.77058594 12.78480469 -22.84960938 11.93945312 C-23.09974028 8.22365308 -23.24579177 5.98271707 -21.31640625 2.7265625 C-15.30770391 -0.83380389 -6.81013131 0.05324475 0 0 Z " fill="#2079C0" transform="translate(244.8046875,33.76171875)"/>
<path d="M0 0 C0.98226562 0.58007812 0.98226562 0.58007812 1.984375 1.171875 C13.56962309 7.78266628 24.47201861 11.18392595 37.75 11.125 C39.03390625 11.13080078 39.03390625 11.13080078 40.34375 11.13671875 C45.97088334 11.12819279 51.41788261 10.71188947 57 10 C57.1173794 13.49971199 57.18763961 16.99890955 57.25 20.5 C57.28351563 21.48226563 57.31703125 22.46453125 57.3515625 23.4765625 C57.37089844 24.92675781 57.37089844 24.92675781 57.390625 26.40625 C57.4220459 27.72592773 57.4220459 27.72592773 57.45410156 29.07226562 C56.33537362 36.2850535 52.07801297 41.51283009 47.00976562 46.49194336 C46.42063889 47.08647308 45.83151215 47.68100281 45.22453308 48.29354858 C43.2948401 50.2356441 41.35115183 52.16298874 39.40625 54.08984375 C38.05325678 55.44299208 36.70093139 56.79680846 35.34924316 58.15126038 C32.52444584 60.97743765 29.69283979 63.79655112 26.85595703 66.6105957 C23.21899033 70.21908401 19.59790429 73.84303257 15.98151398 77.47212887 C13.19562708 80.26496404 10.4024302 83.05039179 7.6068573 85.83352852 C6.26834133 87.16752844 4.93191121 88.50362464 3.59761047 89.84184074 C1.73572829 91.70662908 -0.13555007 93.56143717 -2.00976562 95.41381836 C-2.55949539 95.96804977 -3.10922516 96.52228119 -3.6756134 97.0933075 C-8.33178049 101.65957342 -8.33178049 101.65957342 -12 102 C-12.89897278 90.49954546 -13.07445228 79.12362762 -12.87890625 67.59375 C-12.85452295 65.89026635 -12.83068398 64.18677482 -12.80735779 62.48327637 C-12.7453314 58.05778855 -12.67604645 53.63244493 -12.60510254 49.20709229 C-12.5336703 44.66807471 -12.46930586 40.12895706 -12.40429688 35.58984375 C-12.27633891 26.72645149 -12.14069104 17.86319926 -12 9 C-10.906875 8.690625 -9.81375 8.38125 -8.6875 8.0625 C-6.44592006 7.41662103 -4.2130649 6.7376883 -2 6 C-0.77479736 2.99152582 -0.77479736 2.99152582 0 0 Z " fill="#FB9C06" transform="translate(236,308)"/>
<path d="M0 0 C3.95573545 3.65006499 6.74892027 7.91172288 9.64453125 12.3984375 C12.51791757 16.71991482 12.51791757 16.71991482 17 19 C19.03254851 19.10167251 19.03254851 19.10167251 21.125 18.75 C21.90488281 18.64300781 22.68476563 18.53601563 23.48828125 18.42578125 C26.92551437 17.84310876 30.33404052 17.15335982 33.73828125 16.40234375 C36 16 36 16 40 16 C40.08174796 18.83392926 40.14084985 21.66544819 40.1875 24.5 C40.21263672 25.29148437 40.23777344 26.08296875 40.26367188 26.8984375 C40.42176204 39.75643724 33.92228246 45.88524842 25.27635193 54.81216431 C22.28835958 57.85392555 19.27216893 60.86723066 16.25390625 63.87890625 C15.15040278 64.98308518 14.04704764 66.08741237 12.9438324 67.19187927 C10.65370617 69.48346612 8.36181538 71.77326869 6.06860352 74.06176758 C3.12743201 76.99718839 0.19084647 79.93715001 -2.74447536 82.87841892 C-5.01169258 85.14924028 -7.28127421 87.41768641 -9.55159187 89.68540764 C-10.63641835 90.76956722 -11.72050299 91.85446962 -12.8038311 92.94012642 C-14.308795 94.44762021 -15.81690951 95.95188842 -17.32592773 97.45532227 C-18.1825853 98.31118423 -19.03924286 99.1670462 -19.92185974 100.04884338 C-23.31494844 103.23459922 -25.43857269 103.09916146 -30 103 C-30.15498418 94.50618944 -30.30314105 86.01229707 -30.4429636 77.51822472 C-30.50811919 73.57263109 -30.57548588 69.62710289 -30.64819336 65.68164062 C-30.71848378 61.86266398 -30.78259066 58.0436259 -30.84269524 54.22447586 C-30.86647487 52.77906251 -30.89235443 51.33368189 -30.92053413 49.88834763 C-31.10128994 40.52687898 -30.83241272 31.32860419 -30 22 C-29.29556763 21.97776367 -28.59113525 21.95552734 -27.86535645 21.93261719 C-25.01398459 21.84024704 -22.16334487 21.73237645 -19.3125 21.625 C-18.30509766 21.5940625 -17.29769531 21.563125 -16.25976562 21.53125 C-15.28330078 21.49257813 -14.30683594 21.45390625 -13.30078125 21.4140625 C-12.40528564 21.3826416 -11.50979004 21.3512207 -10.5871582 21.31884766 C-7.72415627 20.96600435 -5.57273572 20.30293524 -3 19 C-0.51955685 15.27933528 -0.55618827 12.13459526 -0.375 7.8125 C-0.33632812 7.06291016 -0.29765625 6.31332031 -0.2578125 5.54101562 C-0.16371784 3.69440801 -0.08077681 1.8472381 0 0 Z " fill="#1A75BE" transform="translate(168,304)"/>
<path d="M0 0 C0.99 0 1.98 0 3 0 C3 27.39 3 54.78 3 83 C-19.77 83.33 -42.54 83.66 -66 84 C-67.0690799 72.24012112 -66.65296567 69.67039672 -60 61 C-56.21777083 56.5948948 -52.0596489 52.5797882 -47.875 48.5625 C-46.79178931 47.50446137 -45.70975146 46.44522061 -44.62890625 45.38476562 C-42.64615938 43.44234626 -40.65610778 41.50879158 -38.65966797 39.58032227 C-34.52087888 35.5650054 -30.46899211 31.46666166 -26.42578125 27.35546875 C-24.72148124 25.63268678 -23.01705072 23.91003392 -21.3125 22.1875 C-20.44560547 21.30384766 -19.57871094 20.42019531 -18.68554688 19.50976562 C-17.85732422 18.67509766 -17.02910156 17.84042969 -16.17578125 16.98046875 C-15.42208252 16.21629639 -14.66838379 15.45212402 -13.8918457 14.66479492 C-12 13 -12 13 -10 13 C-9.74347656 12.41476563 -9.48695313 11.82953125 -9.22265625 11.2265625 C-7.89437838 8.80765392 -6.43475199 7.26801128 -4.4375 5.375 C-1.85984611 2.95478041 -1.85984611 2.95478041 0 0 Z " fill="#1A75BE" transform="translate(376,97)"/>
<path d="M0 0 C0.15439724 8.97132824 0.30257086 17.94273203 0.4429636 26.91429043 C0.50835681 31.08085669 0.57583315 35.24736681 0.64819336 39.41381836 C0.71804334 43.44026464 0.78226043 47.46676612 0.84269524 51.49336433 C0.86663254 53.02384726 0.89254445 54.55430071 0.92053413 56.08471489 C1.06034191 63.79738332 1.1134421 71.34836593 0 79 C-1.1859375 79.02578125 -2.371875 79.0515625 -3.59375 79.078125 C-18.94458056 79.55355085 -32.03390528 81.66478515 -45.42578125 89.51171875 C-48 91 -48 91 -51 92 C-51.5859375 88.97265625 -51.5859375 88.97265625 -52.171875 85.9453125 C-52.84653081 83.88636014 -52.84653081 83.88636014 -54.6875 82.8125 C-57.52427847 81.81579405 -60.27803349 81.32725577 -63.25 80.875 C-64.32765625 80.70742187 -65.4053125 80.53984375 -66.515625 80.3671875 C-67.74539062 80.18542969 -67.74539062 80.18542969 -69 80 C-69.7887737 73.0587914 -67.75492686 66.8508901 -64 61 C-59.24958881 55.09391912 -53.63881598 49.93340233 -48.1875 44.6875 C-46.734761 43.26136022 -45.28357631 41.83363535 -43.83398438 40.40429688 C-37.94774331 34.6275229 -32.01639168 28.9703791 -25.78398132 23.56678772 C-23.66904103 21.70933415 -21.65781656 19.77172925 -19.67578125 17.7734375 C-18.59780273 16.690625 -18.59780273 16.690625 -17.49804688 15.5859375 C-16.77681641 14.85632813 -16.05558594 14.12671875 -15.3125 13.375 C-14.57966797 12.63765625 -13.84683594 11.9003125 -13.09179688 11.140625 C-12.37701172 10.42132813 -11.66222656 9.70203125 -10.92578125 8.9609375 C-10.24725098 8.27870117 -9.5687207 7.59646484 -8.86962891 6.89355469 C-7.71691805 5.72609251 -6.57165438 4.55115489 -5.43896484 3.36425781 C-2.20610486 0 -2.20610486 0 0 0 Z " fill="#FB9D09" transform="translate(293,99)"/>
<path d="M0 0 C0 8.58 0 17.16 0 26 C-3.67205446 26.91801362 -6.7356766 27.262761 -10.5 27.375 C-12.18609375 27.44847656 -12.18609375 27.44847656 -13.90625 27.5234375 C-17 27 -17 27 -19.375 24.71875 C-21.53537529 21.10427596 -21.76257239 18.05164726 -21 14 C-18.90501296 8.4656492 -15.41845658 4.58299786 -10.04296875 2.09375 C-6.3790806 0.62547571 -4.04291428 0 0 0 Z " fill="#FB9E0A" transform="translate(293,235)"/>
<path d="M0 0 C0.99 0 1.98 0 3 0 C3 16.83 3 33.66 3 51 C2.67 51 2.34 51 2 51 C0.5897361 44.63898317 0.31528908 38.17291321 -0.125 31.6875 C-0.17146667 31.01547546 -0.21793335 30.34345093 -0.26580811 29.65106201 C-0.94082883 19.67144341 -1.17611835 9.94932546 0 0 Z " fill="#3E8BC8" transform="translate(38,238)"/>
</svg>
