<svg xmlns="http://www.w3.org/2000/svg" width="512" height="512" viewBox="0 0 512 512">
  <path class="tkctf-outline" d="M224.817 174.523h0.252l0.252 5.532 1.572 0.173c10.761 1.317 10.761 1.317 14.774 4.102l0.158 0.638q0.29 1.171 0.581 2.342l0.251 1.014q0.18 0.729 0.361 1.457l0.22 0.886c0.16 0.685 0.16 0.685 0.442 1.206 2.365 -0.83 4.534 -1.887 6.727 -3.096 9.714 -5.339 19.963 -8.658 31.073 -9.163q0.845 -0.043 1.69 -0.088c1.589 -0.083 3.179 -0.157 4.77 -0.226l0.648 -0.029c2.047 -0.089 4.094 -0.169 6.142 -0.223v-1.006h17.1v4.024l0.827 -0.051c4.692 -0.261 9.39 -0.271 14.088 -0.313 2.558 -0.023 5.116 -0.05 7.674 -0.076l0.758 -0.008c3.666 -0.038 7.33 -0.093 10.995 -0.181 5.646 -0.133 11.294 -0.196 16.941 -0.259l2.233 -0.025c5.297 -0.061 10.593 -0.115 15.89 -0.093v-1.006c12.761 -0.261 25.52 -0.291 38.284 -0.284q3.235 0.002 6.471 -0.001 3.164 -0.002 6.328 -0.001 1.871 0.001 3.742 0 1.738 -0.001 3.475 0.001 0.636 0 1.271 -0.001 0.866 -0.001 1.732 0.002l0.977 0c0.733 0.028 1.385 0.112 2.097 0.283l0.503 -1.006 0.503 0.754 23.136 0.252v-1.006c7.23 -0.205 14.455 -0.292 21.687 -0.284q2.009 0.002 4.017 -0.001 1.568 -0.001 3.136 0l1.485 -0.001q1.022 -0.001 2.043 0.002l0.61 -0.002c0.809 0.003 1.455 0.028 2.228 0.286 0.029 5.725 -0.024 11.442 -0.187 17.165q-0.033 1.165 -0.063 2.331c-0.185 7.285 -0.541 14.516 -1.51 21.746 -1.435 0.559 -2.869 1.023 -4.354 1.431l-0.608 0.171 -0.584 0.162 -0.524 0.145c-0.47 0.103 -0.47 0.103 -1.224 0.103l-0.046 0.646 -0.457 6.395a2703.5 2703.5 0 0 0 1.997 1.694 96.75 96.75 0 0 0 2.53 2.078c0.079 4.024 -0.055 8.035 -0.22 12.055l-0.03 0.769c-0.322 8.155 -0.322 8.155 -1.132 10.378 -0.466 1.335 -0.571 2.649 -0.672 4.052l-0.065 0.802c-0.067 0.838 -0.13 1.675 -0.192 2.513l-0.135 1.714q-0.165 2.09 -0.321 4.18l-0.252 0.252a2073.5 2073.5 0 0 1 -4.333 0.323q-0.735 0.054 -1.47 0.11 -1.065 0.08 -2.13 0.158l-0.649 0.05c-1.764 0.126 -3.467 0.115 -5.25 0.115v10.562h-0.252v-10.562h-16.094l-0.037 3.453a5052.75 5052.75 0 0 1 -0.214 16.413l-0.012 0.831c-0.05 3.467 -0.103 6.935 -0.164 10.402q-0.038 2.136 -0.07 4.272 -0.03 2.029 -0.069 4.056 -0.013 0.75 -0.024 1.5a247 247 0 0 1 -0.037 2.065l-0.005 0.601c-0.043 1.627 -0.415 3.108 -1.212 4.535 -1.176 1.384 -2.662 2.329 -4.349 3 -1.418 0.41 -2.906 0.518 -4.369 0.675l-0.957 0.109c-7.66 0.828 -15.328 0.727 -23.02 0.652q-1.466 -0.014 -2.931 -0.027c-7.377 -0.067 -14.753 -0.145 -22.13 -0.231l-0.754 -0.754c-0.209 -4.124 -0.305 -8.241 -0.345 -12.37l-0.021 -1.913q-0.023 -2.042 -0.044 -4.083 -0.031 -2.962 -0.064 -5.923 -0.053 -4.821 -0.105 -9.642l-0.006 -0.58 -0.093 -8.728 -0.006 -0.579a24784.25 24784.25 0 0 0 -0.105 -9.61q-0.033 -2.949 -0.063 -5.898 -0.024 -2.266 -0.049 -4.532 -0.01 -0.92 -0.019 -1.841c-0.03 -3.009 -0.082 -6.014 -0.205 -9.021l-0.03 -0.742c-0.086 -1.948 -0.26 -3.875 -0.494 -5.811q-0.103 -0.885 -0.205 -1.771l-0.091 -0.758c-0.062 -0.655 -0.077 -1.293 -0.066 -1.951l-0.943 -0.037c-2.55 -0.108 -5.094 -0.257 -7.638 -0.466l-0.79 -0.063 -0.737 -0.063 -0.652 -0.055c-0.556 -0.07 -0.556 -0.07 -1.31 -0.322l-0.036 0.486c-0.156 1.907 -0.438 3.777 -0.757 5.663l-0.249 1.505q-0.133 0.803 -0.267 1.606c-1.07 6.448 -2.075 12.903 -2.982 19.376l-0.077 0.551c-0.926 6.607 -1.776 13.225 -2.611 19.844 -0.671 5.324 -1.389 10.636 -2.184 15.944 -0.709 4.74 -1.298 9.459 -1.65 14.24l-0.142 1.845 -0.109 1.424 -0.252 0.252q-2.647 0.312 -5.294 0.617 -0.895 0.103 -1.79 0.209c-7.501 0.884 -14.899 1.266 -22.444 1.235 -0.827 -0.003 -1.653 -0.003 -2.48 -0.003 -4.427 0 -8.836 -0.063 -13.258 -0.298l-3.772 -3.772c-0.351 -14.278 -0.583 -28.557 -0.761 -42.838l-0.05 -4.008c-0.127 -9.951 -0.237 -19.901 -0.195 -29.854l-0.939 0.004c-2.296 0.006 -4.583 -0.011 -6.877 -0.115 -2.713 -0.112 -5.425 -0.185 -8.14 -0.243l-2.01 -0.044c-1.837 -0.041 -3.673 -0.081 -5.51 -0.118q-1.711 -0.034 -3.423 -0.074 -0.644 -0.014 -1.288 -0.026c-0.597 -0.011 -1.193 -0.025 -1.789 -0.039l-0.525 -0.007c-1.319 -0.037 -2.554 -0.241 -3.72 -0.883l-0.419 -0.311 -0.464 -0.339 -0.464 -0.351 -0.485 -0.356a151.75 151.75 0 0 1 -1.166 -0.869l0.252 1.509 -0.497 -0.11 -0.666 -0.141 -0.654 -0.141c-1.813 -0.286 -3.235 0.137 -4.935 0.742 -3.568 1.347 -6.883 3.255 -9.544 6.021 -0.656 0.799 -1.21 1.628 -1.746 2.511l-0.269 0.442c-0.284 0.489 -0.545 0.986 -0.8 1.492l-0.342 0.67c-0.922 1.978 -1.094 3.671 -1.041 5.837l-0.002 0.902c0.005 1.591 0.005 1.591 0.407 3.117 0.629 1.047 1.375 1.961 2.156 2.897l0.462 0.561q0.561 0.68 1.125 1.357 2.522 0.029 5.043 0.042 0.855 0.005 1.71 0.015c3.023 0.034 5.905 0.023 8.864 -0.648 0.728 -0.164 0.728 -0.164 1.483 -0.164l0.252 -1.257 0.506 -0.096c4.737 -0.905 8.378 -2.263 12.533 -4.698 1.243 -0.722 2.516 -1.37 3.809 -1.996l0.252 2.012 0.563 0.123c1.227 0.329 2.293 0.666 3.224 1.554q0.364 0.373 0.719 0.754l0.377 0.391a106 106 0 0 1 0.901 0.95c0.172 11.249 -0.158 22.338 -1.175 33.542 -0.102 1.135 -0.2 2.271 -0.296 3.407 -0.103 1.201 -0.211 2.401 -0.32 3.601l-0.056 0.631c-0.588 6.469 -0.588 6.469 -1.489 8.229 -0.344 0.493 -0.704 0.931 -1.111 1.372l-0.389 0.457a49.25 49.25 0 0 1 -0.947 1.067l-0.252 3.521c-11.515 4.215 -11.515 4.215 -15.443 4.061 -2.018 -0.071 -3.951 0.101 -5.955 0.329 -4.615 0.486 -9.223 0.512 -13.86 0.5 -1.17 -0.003 -2.34 0.002 -3.509 0.009 -0.923 0.005 -1.845 0.004 -2.768 0.003q-0.646 0 -1.293 0.005c-9.59 0.061 -18.777 -3.963 -27.082 -8.428a110.75 110.75 0 0 1 -4.275 -2.515c-0.447 0.67 -0.679 1.178 -0.937 1.928l-0.236 0.68 -0.242 0.708 -0.247 0.717q-0.302 0.875 -0.601 1.751c-3.234 1.183 -6.463 2.197 -9.807 3.018l-0.252 3.018 -0.252 0.252 -0.886 0.042 -0.589 0.028 -0.65 0.031 -0.672 0.032 -3.546 0.169 -0.696 0.033 -2.097 0.1 -0.705 0.034 -2.994 0.142 -0.719 0.034 -1.332 0.064 -0.957 0.045v-1.006c-4.163 -0.033 -8.024 0.757 -12.058 1.676 -2.648 0.598 -5.344 1.204 -8.06 1.341l-0.92 0.049c-2.829 0.084 -2.829 0.084 -3.921 -0.379 -2.779 -1.823 -4.604 -4.596 -6.381 -7.324a676.75 676.75 0 0 0 -1.33 -2.011l-0.325 -0.49c-1.502 -2.253 -3.12 -4.381 -4.956 -6.374 -0.699 -0.76 -1.366 -1.544 -2.034 -2.331 -0.176 1.548 -0.291 3.091 -0.368 4.646l-0.029 0.588q-0.06 1.213 -0.118 2.426c-0.102 2.167 -0.226 4.332 -0.442 6.492l-0.043 0.52c-0.098 0.89 -0.294 1.574 -0.759 2.328 -0.472 0.658 -0.958 1.268 -1.509 1.861l-0.598 0.248 -0.8 0.333 -0.787 0.327q-0.83 0.348 -1.642 0.737c-0.954 0.407 -1.878 0.504 -2.907 0.544l-0.567 0.03c-0.614 0.032 -1.228 0.059 -1.842 0.086l-1.292 0.065c-1.132 0.056 -2.263 0.109 -3.395 0.16 -0.918 0.043 -1.836 0.088 -2.754 0.133q-1.655 0.082 -3.309 0.161l-0.628 0.03c-2.213 0.105 -4.421 0.197 -6.638 0.164v1.257c-2.506 0.067 -4.984 -0.119 -7.48 -0.308 -4.379 -0.33 -8.75 -0.59 -13.14 -0.698l-0.754 -0.503a58838 58838 0 0 1 -0.323 -26.92l-0.007 -0.579q-0.047 -3.995 -0.096 -7.99 -0.085 -6.899 -0.164 -13.799l-0.006 -0.545c-0.147 -12.812 -0.211 -25.622 -0.159 -38.435l-0.916 0.01a18.35 18.35 0 0 1 -2.524 -0.172l-0.793 -0.106 -0.835 -0.117 -0.871 -0.118a1319 1319 0 0 1 -2.736 -0.377l-1.863 -0.255a2582.75 2582.75 0 0 1 -4.55 -0.626l0.01 0.871c0.023 2.964 -0.085 5.901 -0.293 8.858l-0.049 0.708c-0.705 10.028 -1.984 20.007 -3.194 29.984 -1.443 11.906 -2.752 23.825 -3.767 35.776l-0.089 1.044a1011.75 1011.75 0 0 0 -0.414 4.991l-1.509 1.257 -21.375 0.503 -0.503 -0.503h-22.884v1.006c-2.21 0.158 -4.175 -0.425 -6.287 -1.006 -0.99 -2.34 -1.264 -4.691 -1.39 -7.209l-0.032 -0.63c-0.102 -2.111 -0.152 -4.221 -0.192 -6.333q-0.019 -1.044 -0.042 -2.088 -0.061 -2.963 -0.118 -5.926 -0.042 -2.183 -0.088 -4.365l-0.015 -0.721a284.25 284.25 0 0 0 -0.472 -11.231c-0.122 -2.005 -0.198 -3.998 -0.165 -6.008h0.252l1.257 16.094h1.006V239.403h-3.018v1.006H14.082V180.055l0.252 -0.252q5.084 -0.15 10.167 -0.295 2.362 -0.068 4.724 -0.137c7.024 -0.207 14.041 -0.395 21.069 -0.323l0.107 -0.584c0.166 -0.775 0.452 -1.418 0.789 -2.135l0.346 -0.744 0.266 -0.561 0.503 -0.252c-0.361 2.17 -1.251 4.222 -2.012 6.287h24.393l0.503 -1.006a22.75 22.75 0 0 1 1.006 -1.006 50517.25 50517.25 0 0 1 34.462 -0.028l0.734 0q5.856 -0.004 11.713 -0.011 6.025 -0.007 12.05 -0.009 3.708 -0.001 7.415 -0.007 2.554 -0.004 5.109 -0.003 1.466 0.001 2.932 -0.003c3.941 -0.011 7.866 0.051 11.802 0.283l0.52 0.03c5.869 0.343 5.869 0.343 8.021 1.57l0.775 0.428c0.917 0.605 1.725 1.29 2.541 2.023q0.316 1.516 0.631 3.033 0.106 0.515 0.214 1.03l0.309 1.487 0.188 0.902a64.5 64.5 0 0 1 0.418 2.35l1.257 -0.503 0.508 -0.866c2.88 -4.851 6.317 -8.725 10.306 -12.713h21.124v1.006h15.088l0.252 -3.018c0.075 -0.504 0.154 -1.008 0.252 -1.509m-33.697 11.568c-1.813 2.411 -3.456 4.927 -5.108 7.45l-0.893 1.36q-0.93 1.416 -1.859 2.833a2368.25 2368.25 0 0 1 -2.781 4.226l-0.454 0.688 -1.735 2.632a1340.25 1340.25 0 0 0 -5.274 8.063q-0.972 1.496 -1.949 2.989l-0.528 0.807 -1.039 1.585 -0.522 0.798 -0.452 0.689c-0.774 1.196 -1.537 2.398 -2.301 3.601l0.029 -0.704q0.181 -4.473 0.348 -8.947l0.027 -0.723c0.316 -8.451 0.451 -16.88 0.35 -25.337 -9.055 -1.107 -18.178 -1.077 -27.284 -1.04 -1.467 0.005 -2.935 0.007 -4.402 0.01q-4.275 0.008 -8.55 0.025a569.75 569.75 0 0 0 -0.423 11.78l-0.045 1.707q-0.06 2.277 -0.12 4.555l-0.075 2.857q-0.346 13.149 -0.61 26.299c-0.138 6.885 -0.299 13.766 -0.532 20.648 -0.218 6.462 -0.396 12.926 -0.575 19.389l-0.074 2.669q-0.127 4.589 -0.251 9.178a1334.75 1334.75 0 0 1 -0.121 4.242c-0.186 6.176 -0.224 12.347 -0.21 18.525q0.004 1.86 0.005 3.719 0.004 3.604 0.012 7.209c7.594 -0.104 15.184 -0.248 22.774 -0.503l0.952 -0.032a1678 1678 0 0 0 12.486 -0.471l1.006 -1.006v-38.224h2.012v2.263l0.609 0.84a653.5 653.5 0 0 1 5.304 7.431c0.626 0.89 1.254 1.779 1.882 2.668q1.129 1.597 2.255 3.197a637.5 637.5 0 0 0 5.128 7.172q1.024 1.416 2.047 2.833l0.815 1.129q0.828 1.146 1.654 2.293a907.5 907.5 0 0 0 5.2 7.141c1.081 0.318 2.046 0.172 3.147 0.026l0.655 -0.084c0.719 -0.093 1.437 -0.19 2.155 -0.287l0.75 -0.101c6.018 -0.81 11.978 -1.918 17.937 -3.074l1.013 -0.196q2.23 -0.432 4.455 -0.893 1.232 -0.254 2.464 -0.505 1.48 -0.303 2.961 -0.607l0.576 -0.118q0.811 -0.167 1.621 -0.334l0.948 -0.195c0.606 -0.129 1.206 -0.265 1.805 -0.422 0.117 -0.844 0.139 -1.43 0 -2.263 -0.544 -1.246 -1.285 -2.375 -2.012 -3.521l-0.85 -1.357a1155.5 1155.5 0 0 0 -1.434 -2.286c-1.589 -2.531 -3.089 -5.11 -4.585 -7.697 -0.679 -1.17 -1.369 -2.333 -2.059 -3.497 -4.97 -8.396 -9.834 -16.852 -14.563 -25.385a605.5 605.5 0 0 0 -3.072 -5.468 389 389 0 0 1 -3.41 -6.145l-0.422 -0.773 -0.391 -0.722 -0.344 -0.635c-0.307 -0.61 -0.564 -1.225 -0.808 -1.863 1.631 -2.923 3.287 -5.801 5.191 -8.556a196.75 196.75 0 0 0 1.137 -1.676c1.405 -2.082 2.842 -4.117 4.391 -6.093 0.618 -0.8 1.209 -1.616 1.793 -2.441 1.01 -1.427 2.041 -2.838 3.08 -4.244 1.123 -1.52 2.237 -3.045 3.332 -4.585 0.838 -1.179 1.683 -2.353 2.53 -3.526l0.417 -0.578 0.844 -1.167q1.028 -1.422 2.055 -2.845l0.817 -1.132 0.409 -0.566 1.635 -2.263 0.817 -1.131q1.025 -1.42 2.053 -2.838a520.25 520.25 0 0 0 4.319 -6.046c1.096 -1.558 2.212 -3.101 3.336 -4.639 0.653 -0.899 1.279 -1.792 1.829 -2.76 -4.085 -2.408 -8.073 -2.762 -12.713 -3.037q-0.936 -0.056 -1.871 -0.115 -1.988 -0.123 -3.977 -0.243 -2.306 -0.14 -4.612 -0.283 -0.907 -0.056 -1.815 -0.11a130 130 0 0 1 -6.548 -0.561c-1.819 -0.203 -3.641 -0.327 -5.468 -0.43q-0.809 -0.046 -1.618 -0.096c-1.546 -0.091 -3.082 -0.166 -4.632 -0.154m73.194 5.099a69.75 69.75 0 0 1 -1.508 0.506c-7.047 2.379 -13.536 7.035 -18.924 12.092 -0.665 0.621 -1.344 1.223 -2.028 1.823 -7.371 6.67 -11.921 16.445 -15.113 25.683 -3.123 9.165 -3.818 17.987 -3.766 27.595 0.004 0.852 0.002 1.704 0.001 2.555a694.5 694.5 0 0 0 0.003 2.507q0.002 0.587 0.001 1.174c-0.001 7.453 2.264 13.493 5.609 20.046q0.318 0.637 0.634 1.274c2.764 5.476 6.697 10.654 11.436 14.569l0.662 0.577c3.773 3.245 7.938 5.685 12.533 7.579 0.959 0.426 1.859 0.92 2.774 1.432 3.522 1.938 7.453 2.53 11.44 2.553l0.873 -0.003 0.941 0.001a521.25 521.25 0 0 0 1.96 -0.003c0.98 -0.003 1.96 0 2.94 0.003 4.822 0.003 9.642 -0.153 14.396 -1.027l0.724 -0.131a37.75 37.75 0 0 0 5.571 -1.498 133 133 0 0 1 1.646 -0.563c3.515 -1.196 6.974 -2.543 10.433 -3.892 0.513 -1.532 0.648 -3.015 0.763 -4.621l0.064 -0.826c0.067 -0.867 0.131 -1.734 0.195 -2.601q0.098 -1.3 0.198 -2.601 0.062 -0.807 0.121 -1.615c0.097 -1.287 0.228 -2.555 0.42 -3.832 0.824 -8.085 0.553 -16.279 0.503 -24.393 -2.218 0.779 -4.434 1.563 -6.643 2.37a414 414 0 0 1 -3.173 1.138q-0.695 0.246 -1.388 0.497c-6.797 2.439 -14.393 3.031 -21.535 1.967 -2.41 -0.472 -4.425 -1.39 -6.364 -2.897 -1.835 -1.631 -3.086 -3.527 -3.899 -5.841 -1.085 -3.494 -0.536 -7.619 -0.409 -11.222l0.024 -0.739c0.069 -1.667 0.313 -3.253 0.637 -4.888l0.114 -0.706c0.194 -1.149 0.567 -2.015 1.281 -2.929 0.64 -0.769 1.312 -1.509 1.995 -2.241 0.537 -0.578 1.056 -1.171 1.577 -1.763q0.532 -0.584 1.069 -1.163l0.471 -0.521c1.421 -1.507 3.062 -2.661 4.809 -3.753l0.468 -0.296c2.146 -1.327 4.3 -2.196 6.746 -2.816l0.681 -0.172c5.013 -1.162 9.957 -1.344 15.083 -1.289q0.944 0.005 1.887 0.01 2.278 0.013 4.557 0.037c0.601 -3.378 1.17 -6.756 1.651 -10.153q0.148 -1.049 0.299 -2.096l0.075 -0.522a79.25 79.25 0 0 1 0.522 -3.101c0.503 -2.695 0.778 -5.398 1.021 -8.127l0.067 -0.729c0.346 -3.837 0.534 -7.629 0.389 -11.483 -13.558 -7.2 -33.303 -5.963 -47.514 -0.936m152.126 -2.081c-0.2 2.096 -0.2 2.096 -0.318 4.188l-0.026 0.745 -0.025 0.786 -0.029 0.854c-0.031 0.93 -0.06 1.859 -0.09 2.789l-0.065 1.984q-0.068 2.089 -0.134 4.177 -0.067 2.096 -0.136 4.192c-0.306 9.267 -0.546 18.534 -0.679 27.805l-0.023 1.584c-0.089 6.078 -0.169 12.156 -0.243 18.233l-0.025 2.066c-0.13 10.502 -0.238 21.004 -0.251 31.507l-0.001 0.573c-0.01 7.749 0.016 15.497 0.033 23.246h43.254v-52.306h31.183c0.175 -2.973 0.315 -5.935 0.39 -8.91q0.02 -0.766 0.042 -1.532l0.023 -0.895c0.06 -1.253 0.185 -2.502 0.299 -3.751l0.252 -12.071h-32.188v-11.065l2.447 0.018c17.511 0.429 17.511 0.429 34.771 -2.03 2.438 -10.642 2.012 -21.206 2.012 -32.188zm-391.293 1.006c-0.31 3.719 -0.615 7.421 -0.784 11.147l-0.032 0.697c-0.257 5.734 -0.249 11.467 -0.224 17.206 0.005 1.383 0.007 2.766 0.01 4.149q0.008 4.021 0.025 8.041c1.738 0.011 3.462 0.013 5.194 -0.119a88.75 88.75 0 0 1 4.354 -0.195l0.592 -0.013q1.192 -0.025 2.384 -0.045c4.222 -0.075 8.399 -0.371 12.623 -0.635v82.483c9.191 0.026 9.191 0.026 18.358 -0.503 2.515 -0.141 2.515 -0.141 3.583 -0.19 0.899 -0.042 0.899 -0.042 1.604 -0.18 1.095 -0.172 2.185 -0.242 3.29 -0.314l0.707 -0.048q1.113 -0.075 2.227 -0.148 1.111 -0.074 2.221 -0.148 0.689 -0.047 1.379 -0.092a57.75 57.75 0 0 0 3.85 -0.389c1.64 -3.768 1.448 -8.214 1.659 -12.251 0.124 -2.341 0.295 -4.68 0.463 -7.018 0.209 -2.913 0.409 -5.827 0.583 -8.743 0.572 -9.584 0.572 -9.584 1.105 -14.298 0.867 -7.79 1.508 -15.598 2.091 -23.414q0.116 -1.537 0.233 -3.074 0.115 -1.51 0.229 -3.022 0.053 -0.706 0.106 -1.411a341.25 341.25 0 0 0 0.574 -9.253l0.721 -0.017c5.157 -0.122 10.313 -0.289 15.468 -0.486l0.849 -0.032q1.221 -0.046 2.442 -0.094l0.719 -0.027c1.99 -0.08 3.966 -0.218 5.955 -0.35V190.114zm289.697 0 -0.503 8.299 -0.158 2.527c-0.37 6.228 -0.407 12.441 -0.38 18.678 0.005 1.331 0.007 2.661 0.01 3.992q0.008 3.873 0.025 7.745 2.85 0.009 5.699 0.013 1.323 0.002 2.647 0.006 1.524 0.004 3.049 0.006l0.952 0.004c1.528 0 2.991 -0.055 4.502 -0.28a32.5 32.5 0 0 1 1.147 -0.062l0.609 -0.025q0.604 -0.023 1.208 -0.043c2.143 -0.09 4.184 -0.37 6.34 -0.624v81.478c16.489 0.275 16.489 0.275 33.1 -0.471l0.652 -0.05c0.929 -0.085 1.604 -0.183 2.45 -0.596 0.531 -0.387 0.531 -0.387 1.016 -0.894 0.638 -6.448 1.149 -12.905 1.649 -19.364q0.164 -2.119 0.33 -4.237l0.067 -0.859 0.335 -4.289q0.563 -7.236 1.14 -14.47 0.094 -1.182 0.188 -2.364 0.129 -1.63 0.259 -3.26l0.041 -0.51c0.156 -1.937 0.33 -3.871 0.536 -5.803 0.325 -3.071 0.466 -6.154 0.628 -9.236l0.143 -2.666q0.044 -0.82 0.087 -1.641l0.041 -0.759 0.034 -0.653c0.082 -1.192 0.199 -2.381 0.307 -3.571l0.252 -8.802h26.153V190.114zM208.22 241.415c-0.597 0.662 -1.179 1.335 -1.76 2.012l-0.361 0.384c-1.07 1.261 -1.361 2.86 -1.726 4.434 -0.156 0.855 -0.212 1.61 -0.176 2.474q0.77 1.069 1.54 2.138l0.434 0.603a209 209 0 0 0 2.803 3.798h0.252v-15.843z" fill="#F7F8F7"/>
  <path class="T0" d="M25.147 190.114h94.554v37.218c-12.025 0.587 -12.025 0.587 -16.523 0.756q-1.238 0.047 -2.476 0.096l-1.62 0.062 -0.726 0.029c-1.604 0.059 -3.204 0.074 -4.809 0.064l-0.028 0.459c-0.494 8.051 -1.052 16.095 -1.714 24.134l-0.147 1.791c-0.325 3.953 -0.653 7.902 -1.128 11.84 -0.665 5.669 -1.027 11.34 -1.366 17.037 -0.173 2.877 -0.377 5.752 -0.584 8.627 -0.166 2.3 -0.324 4.599 -0.436 6.902 -0.193 3.882 -0.486 7.645 -1.385 11.442l-0.252 0.252q-1.77 0.155 -3.539 0.308l-1.198 0.104c-2.406 0.211 -4.811 0.397 -7.223 0.527 -0.806 0.061 -1.577 0.184 -2.373 0.317q-0.918 0.073 -1.837 0.126l-0.52 0.031q-0.817 0.048 -1.635 0.095 -0.815 0.047 -1.629 0.095 -0.741 0.044 -1.482 0.086c-0.988 0.074 -1.972 0.199 -2.955 0.322h-12.825V230.35l-8.047 0.503c-1.719 0.059 -3.436 0.112 -5.155 0.141q-1.198 0.022 -2.397 0.048l-0.579 0.013c-1.559 0.037 -3.11 0.132 -4.665 0.25 -1.433 0.09 -2.87 0.06 -4.305 0.051q-0.018 -4.435 -0.026 -8.87 -0.004 -2.062 -0.012 -4.123c-0.024 -5.706 -0.003 -11.401 0.26 -17.102l0.029 -0.658c0.164 -3.506 0.463 -6.988 0.754 -10.489" fill="#010101"/>
  <path class="K" d="m191.12 186.09 0.923 0.046 0.609 0.03 1.355 0.069c1.143 0.058 2.285 0.114 3.428 0.162l0.633 0.028q0.579 0.026 1.157 0.048c1.185 0.053 2.36 0.161 3.539 0.292 2.4 0.266 4.797 0.459 7.207 0.602q0.935 0.056 1.871 0.115 2.319 0.144 4.639 0.284 1.974 0.119 3.948 0.243c0.606 0.038 1.212 0.073 1.819 0.11 7.962 0.486 7.962 0.486 11.154 2.302 0.421 0.276 0.421 0.276 0.972 0.7a109.25 109.25 0 0 1 -3.049 4.401 361.25 361.25 0 0 0 -3.238 4.527c-1.437 2.042 -2.897 4.067 -4.362 6.09q-1.05 1.45 -2.098 2.901l-0.415 0.574q-1.22 1.69 -2.43 3.387c-1.361 1.908 -2.733 3.807 -4.107 5.706a1210.25 1210.25 0 0 0 -1.231 1.708 653.75 653.75 0 0 1 -4.662 6.391 520 520 0 0 0 -3.779 5.196 245.25 245.25 0 0 1 -1.605 2.204c-3.295 4.487 -6.285 9.149 -9.009 14.002 0.433 1.173 1.004 2.26 1.587 3.364l0.334 0.633c1.124 2.115 2.305 4.195 3.49 6.277 0.926 1.631 1.837 3.27 2.747 4.91l0.957 1.724 0.476 0.858c2.167 3.902 4.357 7.786 6.615 11.636 0.925 1.579 1.837 3.166 2.749 4.753 1.796 3.12 3.629 6.218 5.47 9.312q0.657 1.109 1.31 2.222a399.25 399.25 0 0 0 5.035 8.335q0.477 0.77 0.949 1.544a72.25 72.25 0 0 0 0.981 1.55c1.197 1.9 1.197 1.9 1.359 2.924 0.001 0.628 0.001 0.628 -0.11 1.571 -3.552 0.859 -7.121 1.563 -10.717 2.205 -2.095 0.374 -4.186 0.766 -6.272 1.19l-2.313 0.465q-0.842 0.17 -1.683 0.341c-4.407 0.89 -8.821 1.595 -13.277 2.196l-0.766 0.104q-1.081 0.146 -2.162 0.287l-0.657 0.089 -0.609 0.077 -0.529 0.069c-0.546 0.018 -0.981 -0.079 -1.502 -0.234 -1.667 -2.196 -3.303 -4.407 -4.886 -6.665a325.75 325.75 0 0 0 -2.768 -3.882l-0.411 -0.568 -1.239 -1.711a712.75 712.75 0 0 1 -5.914 -8.271c-0.626 -0.89 -1.254 -1.779 -1.882 -2.668a1953.75 1953.75 0 0 1 -2.255 -3.197c-1.827 -2.595 -3.678 -5.172 -5.541 -7.742v-2.263h-2.012v38.224l-1.006 1.006c-7.872 0.365 -15.745 0.599 -23.623 0.786l-1.409 0.034a4054 4054 0 0 1 -4.639 0.108c-2.18 0.051 -4.36 0.093 -6.541 0.078 -0.118 -14.809 0.153 -29.59 0.606 -44.392q0.163 -5.281 0.301 -10.563l0.018 -0.657 0.127 -4.868c0.091 -3.51 0.184 -7.018 0.331 -10.526 0.171 -4.165 0.236 -8.331 0.317 -12.498 0.19 -9.781 0.423 -19.56 0.68 -29.34q0.037 -1.412 0.074 -2.825 0.058 -2.244 0.118 -4.489l0.043 -1.644a532.25 532.25 0 0 1 0.402 -10.977q4.713 -0.018 9.427 -0.026 2.19 -0.004 4.381 -0.012c8.821 -0.034 17.658 -0.028 26.428 1.044 0.104 8.698 -0.05 17.367 -0.377 26.059l-0.028 0.728q-0.168 4.462 -0.349 8.923l0.303 -0.477q0.689 -1.085 1.378 -2.169l0.476 -0.751a209.25 209.25 0 0 1 2.937 -4.5c0.832 -1.238 1.646 -2.487 2.457 -3.74a1218.25 1218.25 0 0 1 4.897 -7.476l2.229 -3.382q1.462 -2.219 2.921 -4.44 0.995 -1.514 1.991 -3.029l0.956 -1.455a1694.75 1694.75 0 0 1 1.339 -2.038l0.394 -0.603c0.828 -1.257 1.701 -2.47 2.618 -3.663" fill="#010101"/>
  <path class="C" d="M311.827 192.126c0.336 8.936 -0.93 17.81 -2.455 26.591 -0.383 2.216 -0.71 4.438 -1.027 6.664l-0.107 0.749 -0.09 0.637c-0.088 0.534 -0.21 1.048 -0.344 1.572l-0.471 -0.007c-1.657 -0.023 -3.314 -0.038 -4.971 -0.049q-0.921 -0.007 -1.842 -0.021c-6.756 -0.095 -14.25 0.335 -20.362 3.518 -4.467 2.446 -7.963 5.893 -11.081 9.886l-0.447 0.513c-0.974 1.157 -1.351 2.26 -1.68 3.731 -0.508 2.922 -0.55 5.874 -0.639 8.833l-0.023 0.743c-0.091 3.356 0.027 6.295 1.469 9.395 1.091 2.016 2.318 3.358 4.228 4.636 2.436 1.544 4.926 2.083 7.78 2.278 10.676 0.586 19.565 -2.259 29.361 -6.079 0.439 -0.16 0.439 -0.16 0.691 -0.16 0.109 17.475 0.109 17.475 -0.503 24.393l-0.044 0.505a498.5 498.5 0 0 1 -0.528 5.641c-0.203 2.067 -0.362 4.136 -0.5 6.208l-0.052 0.716 -0.041 0.615c-0.117 0.83 -0.351 1.608 -0.594 2.409q-1.87 0.712 -3.74 1.421l-1.266 0.481q-2.146 0.817 -4.298 1.618l-0.582 0.217c-2.272 0.844 -4.492 1.55 -6.883 1.983l-0.817 0.155c-5.326 0.996 -10.537 1.218 -15.947 1.226 -0.992 0.003 -1.983 0.01 -2.974 0.018 -5.683 0.024 -10.576 -0.443 -15.621 -3.207-1.3 -0.709 -2.619 -1.32 -3.98 -1.901 -4.416 -1.912 -8.121 -4.637 -11.612 -7.92a36.25 36.25 0 0 0 -1.685 -1.464c-4.8 -4.217 -7.897 -10.123 -10.687 -15.758a143.5 143.5 0 0 0 -0.992 -1.957c-0.943 -1.865 -1.657 -3.745 -2.246 -5.75l-0.182 -0.618c-0.907 -3.308 -1.06 -6.632 -1.056 -10.038l-0.004 -1.213q-0.003 -1.267 -0.001 -2.533 0.002 -1.272 -0.005 -2.544c-0.047 -8.746 0.441 -17.03 3.291 -25.363l0.202 -0.596c3.731 -11.024 9.022 -20.98 17.686 -28.938 1.456 -1.315 2.984 -2.52 4.557 -3.692l0.417 -0.317c2.493 -1.885 5.143 -3.462 7.881 -4.964l0.524 -0.289c15.101 -8.215 38.949 -9.967 54.297 -1.974" fill="#010101"/>
  <path class="T1" d="M314.845 190.114h94.554v37.218h-26.153l-0.252 8.802c-0.236 3.505 -0.236 3.505 -0.37 5.226 -0.112 1.457 -0.194 2.914 -0.267 4.374 -0.181 3.634 -0.419 7.256 -0.756 10.879 -0.426 4.602 -0.808 9.207 -1.168 13.815l-0.07 0.893q-0.177 2.275 -0.353 4.551 -0.221 2.855 -0.443 5.71l-0.075 0.961 -0.368 4.721a5591.5 5591.5 0 0 1 -1.082 13.719q-0.077 0.965 -0.154 1.931 -0.103 1.289 -0.207 2.577l-0.058 0.728c-0.098 1.208 -0.227 2.401 -0.414 3.599 -0.594 0.635 -0.922 0.978 -1.76 1.257 -0.772 0.114 -1.549 0.178 -2.326 0.252l-0.606 0.063c-10.687 1.026 -22.09 0.44 -32.526 0.44V230.35l-4.275 0.503c-0.888 0.059 -1.768 0.111 -2.656 0.141q-0.614 0.023 -1.227 0.048l-0.524 0.018c-0.497 0.035 -0.992 0.099 -1.484 0.172 -1.525 0.196 -3.057 0.154 -4.591 0.148l-0.99 -0.001q-1.292 -0.002 -2.584 -0.006 -1.323 -0.004 -2.645 -0.005 -2.588 -0.004 -5.176 -0.012c-0.184 -28.149 -0.184 -28.149 1.006 -41.242" fill="#010101"/>
  <path class="F" d="M416.44 189.108h80.472c0 23.409 0 23.409 -2.012 32.188 -11.864 3.018 -25.09 2.099 -37.218 2.012v11.065h32.188c-0.252 12.071 -0.252 12.071 -0.503 14.837a84.25 84.25 0 0 0 -0.071 1.88l-0.014 0.499q-0.021 0.775 -0.041 1.55c-0.072 2.803 -0.212 5.592 -0.377 8.393h-31.183v52.306h-43.254c-0.04 -18.318 -0.04 -18.318 -0.033 -23.818l0.001 -0.601c0.014 -10.534 0.129 -21.067 0.259 -31.599l0.025 -2.054a7433.75 7433.75 0 0 1 0.265 -19.634c0.133 -9.277 0.382 -18.549 0.689 -27.823q0.069 -2.106 0.136 -4.211 0.074 -2.324 0.15 -4.648l0.063 -1.941q0.043 -1.342 0.088 -2.684l0.025 -0.786 0.026 -0.745 0.021 -0.634c0.069 -1.187 0.19 -2.37 0.297 -3.554" fill="#010101"/>
  <path class="blue-right-down" d="M311.576 238.9c4.697 -0.03 9.374 0.02 14.067 0.252q1.417 0.068 2.834 0.135l1.408 0.067 1.054 0.05c0.169 7.18 0.285 14.361 0.368 21.542l0.007 0.619 0.066 5.729c0.15 13.133 0.303 26.265 0.596 39.395l0.017 0.763q0.097 4.326 0.203 8.652l3.521 3.521c4.989 0.262 9.968 0.313 14.963 0.314l0.634 0c10.145 0.003 19.739 -0.918 29.92 -2.075v94.554l2.263 0.252c0.509 0.083 1.018 0.171 1.525 0.267l0.716 0.135 0.525 0.101 0.563 -0.581c1.434 -1.464 2.888 -2.836 4.492 -4.116 3.855 -3.091 7.416 -6.497 10.914 -9.983l0.71 -0.707c1.146 -1.148 2.259 -2.308 3.315 -3.54 0.519 -0.605 1.061 -1.188 1.601 -1.773 1.028 -1.128 2.005 -2.287 2.963 -3.474 0.635 -0.779 1.286 -1.545 1.94 -2.309 1.082 -1.269 2.119 -2.568 3.142 -3.885 0.912 -1.168 1.86 -2.301 2.822 -3.428a105.25 105.25 0 0 0 2.442 -2.981q0.63 -0.788 1.271 -1.566c3.32 -4.032 6.412 -8.177 9.203 -12.594a247.5 247.5 0 0 1 1.158 -1.808c3.039 -4.73 5.752 -9.633 8.285 -14.65l0.381 -0.754c3.329 -6.637 6.175 -13.634 7.918 -20.872l-0.644 -0.019q-1.206 -0.036 -2.413 -0.074 -0.518 -0.016 -1.036 -0.032c-2.163 -0.064 -4.314 -0.171 -6.468 -0.378l-0.252 -0.503 0.543 -0.007c4.39 -0.07 8.766 -0.291 13.144 -0.623q0.814 -0.061 1.627 -0.117c3.221 -0.223 6.111 -0.45 8.944 -2.138 1.071 -0.708 1.76 -1.548 2.42 -2.641 0.568 -1.266 0.528 -2.613 0.551 -3.978l0.014 -0.671q0.022 -1.107 0.041 -2.213l0.031 -1.569q0.041 -2.103 0.079 -4.207 0.032 -1.738 0.066 -3.475c0.104 -5.438 0.203 -10.877 0.281 -16.316l0.009 -0.591q0.043 -2.921 0.077 -5.843l0.024 -1.844 0.008 -0.805c0.025 -1.858 0.162 -3.659 0.305 -5.521h16.094l0.047 6.853 0.021 2.113c0.025 4.268 -0.255 8.432 -0.822 12.661l-0.087 0.651a109.25 109.25 0 0 1 -0.573 3.703l-0.095 0.558c-3.295 19.317 -10.015 38.135 -18.609 55.693l-0.349 0.72c-1.757 3.615 -3.674 7.118 -5.686 10.596l-0.333 0.58c-5.224 9.106 -11.297 17.822 -18.122 25.804 -0.605 0.709 -1.19 1.432 -1.773 2.158 -1.011 1.245 -2.085 2.421 -3.185 3.587 -0.697 0.725 -0.697 0.725 -1.232 1.569h-0.503l-0.195 0.436c-0.342 0.631 -0.741 1.106 -1.22 1.639l-0.481 0.538 -0.368 0.405h-0.503l-0.185 0.436c-0.374 0.671 -0.816 1.107 -1.371 1.639 -0.895 0.874 -1.729 1.773 -2.542 2.723 -0.584 0.658 -1.208 1.27 -1.841 1.88 -0.375 0.356 -0.375 0.356 -0.599 0.866h-0.503l-0.194 0.444c-0.343 0.623 -0.722 1.016 -1.237 1.505 -0.849 0.81 -1.616 1.669 -2.384 2.554 -2.066 2.36 -4.267 4.607 -6.481 6.829l-0.522 0.525c-1.132 1.128 -2.308 2.188 -3.517 3.231q-0.63 0.564 -1.257 1.132l-1.257 1.132 -0.572 0.518 -0.528 0.472 -0.462 0.415c-0.463 0.365 -0.92 0.614 -1.456 0.858l-0.195 0.452c-0.503 0.903 -1.272 1.413 -2.069 2.063h-2.263l-0.086 0.555c-0.399 1.7 -1.556 3.142 -2.68 4.443 -1.208 1.297 -2.542 2.426 -3.898 3.563 -1.038 0.871 -2.034 1.784 -3.033 2.699a80.25 80.25 0 0 1 -1.587 1.408c-2.02 1.758 -3.982 3.581 -5.859 5.49 -0.63 0.619 -1.298 1.188 -1.968 1.763 -0.701 0.625 -1.352 1.294 -2.011 1.964 -0.648 0.638 -1.332 1.226 -2.022 1.818 -0.786 0.698 -1.522 1.445 -2.254 2.199h-0.503v0.503l-0.37 0.32c-1.234 1.071 -2.435 2.172 -3.622 3.295 -1.085 1.022 -2.171 2.042 -3.285 3.034 -2.561 2.288 -5.075 4.641 -7.467 7.105 -0.503 0.49 -1.017 0.949 -1.549 1.407 -1.062 0.921 -2.042 1.909 -3.024 2.914 -1.355 1.374 -2.724 2.64 -4.242 3.834 -0.692 0.56 -1.305 1.171 -1.922 1.81 -0.458 0.459 -0.936 0.88 -1.427 1.302 -0.803 0.692 -1.552 1.419 -2.294 2.176 -0.458 0.45 -0.931 0.869 -1.419 1.286 -1.009 0.878 -1.957 1.802 -2.896 2.754l-0.501 0.504q-0.783 0.788 -1.565 1.578a1460.25 1460.25 0 0 1 -2.067 2.083l-0.466 0.472c-1.456 1.464 -3.012 2.8 -4.59 4.128a105.75 105.75 0 0 0 -4.264 3.809l-0.554 0.522c-2.229 2.111 -4.393 4.287 -6.558 6.463l-1.25 1.253q-1.506 1.51 -3.01 3.022c-0.975 -0.471 -0.975 -0.471 -1.257 -0.754v-198.664l2.766 -3.521c0.382 -1.342 0.617 -2.413 0.754 -3.772q0.062 -0.508 0.126 -1.016c0.137 -1.147 0.243 -2.297 0.346 -3.447l0.06 -0.665q0.169 -1.869 0.328 -3.737 0.152 -1.776 0.314 -3.55c0.982 -10.886 1.256 -21.671 1.09 -32.598a117.25 117.25 0 0 0 -1.154 -1.217l-0.649 -0.684c-1.115 -0.961 -2.333 -1.253 -3.729 -1.619l-0.252 -0.252c-0.298 -1.873 -0.283 -3.725 -0.276 -5.619l0.001 -1.04q0.002 -1.359 0.006 -2.719 0.004 -1.391 0.005 -2.782 0.004 -2.722 0.012 -5.444" fill="#1674BC"/>
  <path class="blue-left-up" d="M209.226 2.012v176.031l-21.124 0.252c-4.005 4.005 -7.017 7.624 -9.969 12.305 -0.346 0.525 -0.714 1.027 -1.097 1.526h-1.006c-0.802 -2.917 -1.506 -5.819 -2.012 -8.802 -1.637 -1.372 -3.315 -2.673 -5.431 -3.171 -2.055 -0.337 -4.106 -0.509 -6.184 -0.627l-0.542 -0.032c-3.886 -0.226 -7.769 -0.271 -11.66 -0.273 -0.976 -0.001 -1.951 -0.005 -2.926 -0.008q-2.519 -0.008 -5.037 -0.012c-2.428 -0.004 -4.855 -0.01 -7.282 -0.017q-5.911 -0.017 -11.823 -0.029 -5.733 -0.011 -11.466 -0.026l-0.718 -0.002 -3.563 -0.009q-14.714 -0.039 -29.43 -0.069v-0.252q9.006 -0.15 18.012 -0.295 4.184 -0.068 8.368 -0.137 3.658 -0.061 7.316 -0.119 2.249 -0.036 4.498 -0.074c7.557 -0.126 15.103 -0.129 22.663 -0.129V95.56c-1.164 0.466 -1.804 0.934 -2.672 1.776 -0.992 0.938 -1.998 1.833 -3.065 2.688a28.75 28.75 0 0 0 -2.65 2.412c-0.426 0.428 -0.869 0.824 -1.327 1.219 -1.977 1.708 -3.902 3.482 -5.732 5.346 -0.421 0.413 -0.86 0.794 -1.31 1.176 -2.046 1.766 -3.961 3.72 -5.709 5.78 -0.495 0.56 -1.02 1.082 -1.552 1.607a42.75 42.75 0 0 0 -2.421 2.602c-0.554 0.637 -1.125 1.256 -1.696 1.877 -1.024 1.122 -1.993 2.275 -2.946 3.457a94.5 94.5 0 0 1 -1.711 2.021 94.5 94.5 0 0 0 -4.054 5.016 348.5 348.5 0 0 1 -1.3 1.704 897.5 897.5 0 0 0 -3.096 4.069l-0.464 0.612c-5.096 6.732 -9.34 13.967 -13.375 21.367 -0.472 0.865 -0.948 1.728 -1.425 2.59l-0.862 1.569 -0.387 0.697c-1.72 3.153 -2.935 6.457 -4.077 9.849l-0.379 1.115a950.5 950.5 0 0 0 -0.91 2.688l0.503 0.503 -1.509 1.76h-24.393c2.441 -8.949 6.686 -17.22 11.025 -25.375a192.25 192.25 0 0 0 1.084 -2.075l0.234 -0.455c0.253 -0.539 0.253 -0.539 0.465 -1.239 0.268 -0.783 0.597 -1.464 0.99 -2.192l0.433 -0.806 0.463 -0.85 0.476 -0.878c0.955 -1.755 1.924 -3.503 2.918 -5.236l0.313 -0.549c0.697 -1.2 1.472 -2.328 2.274 -3.459 0.722 -1.042 1.375 -2.123 2.034 -3.206a159 159 0 0 1 3.851 -5.977 199.75 199.75 0 0 0 1.16 -1.752c2.59 -3.936 5.265 -7.793 8.358 -11.354 0.626 -0.726 1.23 -1.467 1.83 -2.214a30 30 0 0 1 2.414 -2.635c0.417 -0.416 0.802 -0.847 1.185 -1.294 1.303 -1.509 2.679 -2.951 4.044 -4.404a230.25 230.25 0 0 0 1.304 -1.408c2.054 -2.226 4.175 -4.382 6.314 -6.526l0.428 -0.43c1.401 -1.407 2.803 -2.801 4.314 -4.091 0.647 -0.554 1.266 -1.137 1.889 -1.718 1.167 -1.079 2.369 -2.1 3.608 -3.097a97.75 97.75 0 0 0 1.905 -1.595c1.736 -1.485 3.526 -2.888 5.348 -4.266 2.658 -2.013 5.28 -4.059 7.857 -6.176q0.591 -0.484 1.185 -0.965c1.724 -1.399 3.409 -2.84 5.09 -4.29q0.671 -0.575 1.345 -1.147c1.611 -1.368 3.195 -2.759 4.738 -4.204a78.25 78.25 0 0 1 2.135 -1.926c1.043 -0.908 2.056 -1.847 3.064 -2.795l0.509 -0.476c0.802 -0.753 1.593 -1.513 2.366 -2.297a29.75 29.75 0 0 1 1.813 -1.68c1.411 -1.218 2.707 -2.554 4.019 -3.876l0.776 -0.78q0.714 -0.717 1.427 -1.435a838.5 838.5 0 0 1 1.899 -1.903l2.033 -2.036 0.405 -0.406a35598 35598 0 0 1 9.266 -9.276q2.677 -2.679 5.353 -5.359 2.339 -2.342 4.679 -4.684 1.237 -1.237 2.473 -2.475 1.163 -1.165 2.328 -2.33 0.425 -0.425 0.85 -0.852c1.337 -1.341 2.679 -2.662 4.119 -3.894 0.644 -0.559 1.242 -1.155 1.844 -1.759l0.383 -0.382q0.614 -0.614 1.226 -1.23l0.864 -0.865q1.129 -1.13 2.256 -2.262 1.148 -1.151 2.297 -2.302 2.018 -2.022 4.035 -4.045l0.604 -0.605 0.552 -0.568c1.369 -1.321 1.982 -0.69 4.478 -0.69" fill="#1774BB"/>
  <path class="blue-left-down" d="M47.277 320.88h23.136c1.132 1.698 1.132 1.698 1.454 2.431l0.222 0.5 0.229 0.528 0.247 0.561q0.261 0.591 0.519 1.183 0.408 0.931 0.819 1.861a1508 1508 0 0 1 1.875 4.263c2.757 6.289 5.76 12.509 9.131 18.491a152 152 0 0 1 1.034 1.883c4.774 8.81 10.247 17.23 16.408 25.131l0.409 0.527c4.236 5.532 4.236 5.532 8.979 10.621 0.408 0.408 0.776 0.832 1.147 1.273 0.814 0.936 1.673 1.815 2.555 2.688l0.419 0.415q0.863 0.853 1.73 1.702c1.839 1.805 3.527 3.638 5.131 5.658 2.574 3.044 5.488 5.595 8.755 7.866 1.478 1.035 2.831 2.198 4.194 3.377 0.574 0.491 1.16 0.966 1.747 1.441a111 111 0 0 1 2.679 2.252c8.602 7.45 18.516 13.398 28.645 18.51l0.779 0.394c6.689 3.355 13.598 6.138 20.666 8.585a468.25 468.25 0 0 1 3.087 1.089 1354.25 1354.25 0 0 0 6.398 2.254l0.775 0.272c12.964 4.534 26.521 6.895 40.168 8.089l0.717 0.063c5.58 0.486 11.151 0.67 16.751 0.688l0.844 0.003q2.211 0.007 4.421 0.011 1.795 0.004 3.59 0.015c6.167 0.04 12.2 0.013 18.311 -0.87 2.207 -0.316 4.38 -0.343 6.605 -0.288q0.579 0.007 1.159 0.014c0.908 0.011 1.816 0.028 2.724 0.049l1.006 1.006v19.615c-7.588 1.751 -7.588 1.751 -10.027 2.075l-0.75 0.112c-5.746 0.8 -11.549 0.91 -17.34 0.907q-0.784 0.001 -1.569 0.003 -2.459 0.004 -4.919 0.001 -2.209 -0.002 -4.417 0.005c-20.873 0.066 -40.83 -1.784 -101.946 -24.55 -4.722 -2.616 -9.38 -5.335 -13.94 -8.226l-0.564 -0.357a206.25 206.25 0 0 1 -17.022 -12.059 389.5 389.5 0 0 0 -1.446 -1.132c-2.076 -1.62 -4.123 -3.275 -6.162 -4.941q-0.613 -0.499 -1.229 -0.994c-1.417 -1.144 -2.777 -2.335 -4.118 -3.568a86.25 86.25 0 0 0 -1.664 -1.484c-1.181 -1.028 -2.344 -2.077 -3.505 -3.128l-0.654 -0.588c-1.962 -1.778 -3.849 -3.625 -5.718 -5.5a718.25 718.25 0 0 0 -1.501 -1.499c-2.893 -2.892 -2.893 -2.892 -4.12 -4.353 -0.343 -0.4 -0.707 -0.769 -1.083 -1.137v-0.503h-0.503l-0.415 -0.517c-0.956 -1.18 -1.919 -2.342 -2.948 -3.459 -1.257 -1.383 -2.399 -2.847 -3.541 -4.324a238.75 238.75 0 0 0 -1.241 -1.582 148.25 148.25 0 0 1 -5.316 -7.19c-0.621 -0.893 -1.25 -1.78 -1.878 -2.668l-0.753 -1.069a429.25 429.25 0 0 0 -1.519 -2.138c-4.39 -6.153 -8.269 -12.625 -11.81 -19.3l-0.378 -0.709c-4.46 -8.379 -8.278 -17.026 -11.511 -25.95q-0.188 -0.519 -0.377 -1.037c-3.576 -9.809 -3.576 -9.809 -3.576 -13.293" fill="#1674BB"/>
  <path class="blue-right-up" d="m249.394 33.882 2.033 -0.001q2.116 -0.001 4.232 0.003 2.412 0.004 4.823 -0.001 2.105 -0.003 4.21 -0.002 1.242 0.002 2.484 -0.001c6.76 -0.009 13.456 0.468 20.18 1.153l0.811 0.082c4.806 0.489 9.59 1.059 14.355 1.851l0.544 0.09c18.215 3.038 35.842 8.87 52.517 16.759l0.776 0.363c3.547 1.659 7.017 3.419 10.434 5.332a214.25 214.25 0 0 0 1.662 0.918c6.464 3.556 12.569 7.729 18.511 12.092 0.589 0.432 1.179 0.863 1.77 1.294 4.088 2.989 8.043 6.12 11.901 9.401a138.75 138.75 0 0 0 2.632 2.175c1.197 0.974 2.34 1.998 3.475 3.042 0.706 0.646 1.425 1.276 2.147 1.904 0.579 0.508 1.147 1.027 1.717 1.545a64.25 64.25 0 0 0 2.609 2.232c2.843 2.304 5.572 4.739 8.252 7.23v0.503l0.754 0.252c0.352 0.341 0.352 0.341 0.739 0.802l0.467 0.549 0.555 0.661a618.25 618.25 0 0 0 1.446 1.698l0.387 0.455c1.107 1.293 2.258 2.54 3.427 3.776 0.524 0.61 0.524 0.61 0.775 1.365h0.503l0.305 0.351a177.25 177.25 0 0 0 2.555 2.87c7.816 8.675 14.336 18.598 20.526 28.464l0.493 0.783c3.955 6.29 7.428 12.679 10.23 19.565l0.309 0.76 0.306 0.752c0.883 2.127 1.914 4.159 3.011 6.183l0.368 0.682 0.327 0.594c1.315 2.712 0.797 4.068 0.797 7.648h-23.136c-1.696 -2.826 -1.696 -2.826 -2.155 -3.86l-0.316 -0.702 -0.327 -0.735q-0.363 -0.803 -0.728 -1.607l-0.375 -0.827c-3.515 -7.692 -7.293 -15.282 -12.194 -22.195a353 353 0 0 1 -1.43 -2.075l-0.408 -0.595a346.25 346.25 0 0 1 -2.663 -3.963l-0.325 -0.489 -0.328 -0.494c-2.701 -4.085 -2.701 -4.085 -5.58 -8.044 -0.372 -0.489 -0.74 -0.982 -1.108 -1.475 -2.519 -3.357 -5.254 -6.487 -8.114 -9.556a65.5 65.5 0 0 1 -1.592 -1.789c-1.425 -1.642 -2.984 -3.133 -4.634 -4.546 -0.458 -0.406 -0.883 -0.829 -1.308 -1.269 -0.684 -0.697 -1.405 -1.309 -2.169 -1.917 -3.478 -2.816 -6.595 -6.05 -9.738 -9.228l-0.403 -0.407q-0.377 -0.381 -0.753 -0.763c-0.544 -0.548 -1.05 -0.991 -1.696 -1.422v-0.503l-0.414 -0.171c-0.772 -0.433 -1.369 -1.014 -2.006 -1.621 -6.683 -6.241 -14.757 -11.248 -22.68 -15.749a218.5 218.5 0 0 1 -1.489 -0.857c-7.208 -4.152 -14.758 -7.742 -22.355 -11.119l-0.557 -0.248a485.5 485.5 0 0 0 -3.812 -1.669l-0.572 -0.249c-3.075 -1.337 -6.186 -2.521 -9.361 -3.601l-0.714 -0.244c-5.263 -1.787 -10.598 -3.197 -16.009 -4.455l-0.623 -0.145c-10.11 -2.35 -20.279 -3.958 -30.623 -4.806l-0.564 -0.046c-5.313 -0.431 -10.61 -0.588 -15.939 -0.582l-0.935 0.001c-10.63 0.018 -21.35 0.564 -31.864 2.219 -0.908 0.122 -1.776 0.128 -2.69 0.091 -0.609 -1.005 -0.973 -1.945 -1.096 -3.119 -0.026 -1.018 -0.024 -2.032 -0.008 -3.05q0.003 -0.562 0.004 -1.123c0.004 -0.979 0.013 -1.957 0.025 -2.936 0.01 -1.001 0.015 -2.003 0.02 -3.004 0.011 -1.96 0.029 -3.919 0.049 -5.879l2.012 -3.018c1.602 -0.534 3.163 -0.801 4.823 -1.05 0.519 -0.079 1.038 -0.161 1.556 -0.243 5.626 -0.871 11.257 -1.046 16.941 -1.036" fill="#1574BA"/>
  <path class="mid-down" d="m237.391 309.815 0.622 0.334q1.263 0.676 2.528 1.347 0.644 0.342 1.288 0.685c5.595 2.981 11.151 5.553 17.268 7.252l0.673 0.188c3.232 0.869 6.303 1.085 9.63 1.082l1.343 0.003q1.408 0.003 2.815 0.001 1.413 -0.002 2.826 0.005c6.239 0.03 12.387 -0.197 18.595 -0.839 0.171 3.987 0.287 7.973 0.31 11.965q0.004 0.662 0.013 1.325c0.04 3.245 0.033 6.702 -1.251 9.745l-0.47 0.871 -0.263 0.49a62 62 0 0 1 -0.854 1.507l-0.294 0.514c-1.433 2.478 -3.08 4.65 -4.987 6.779a782 782 0 0 0 -0.975 1.116l-0.408 0.463c-0.557 0.638 -1.097 1.289 -1.635 1.942h-0.503l-0.201 0.449c-0.313 0.578 -0.64 0.956 -1.105 1.418l-0.483 0.482 -0.505 0.495 -0.487 0.487c-0.777 0.77 -1.567 1.511 -2.397 2.224 -1.147 1.002 -2.224 2.065 -3.298 3.144l-0.633 0.633q-1.025 1.026 -2.049 2.053l-1.429 1.43q-1.682 1.684 -3.364 3.369 -1.916 1.92 -3.833 3.839a19547.25 19547.25 0 0 0 -7.877 7.889h-0.503l-0.196 0.453c-0.337 0.606 -0.668 0.918 -1.202 1.355 -1.194 1.012 -2.292 2.102 -3.395 3.212l-0.661 0.662a1523.75 1523.75 0 0 0 -1.411 1.416 2101.25 2101.25 0 0 1 -2.236 2.242 9017.25 9017.25 0 0 0 -4.745 4.758q-2.563 2.572 -5.128 5.141a2125.25 2125.25 0 0 0 -2.218 2.225q-0.854 0.857 -1.709 1.713l-0.612 0.617c-1.092 1.092 -2.206 2.125 -3.393 3.113 -1.184 -0.142 -2.119 -0.371 -3.269 -0.754v-91.788c2.264 -0.849 2.264 -0.849 3.266 -1.132l0.66 -0.188 0.678 -0.19 0.703 -0.199a353 353 0 0 1 4.752 -1.31l0.13 -0.499c0.473 -1.784 0.988 -3.554 1.631 -5.285z" fill="#FA9C05"/>
  <path class="in-left-down" d="M168.99 305.792c3.752 3.063 6.387 7.237 9.027 11.245 2.753 4.179 2.753 4.179 6.564 7.364 2.985 0.995 6.832 0.02 9.831 -0.529 3.138 -0.577 3.138 -0.577 6.247 -1.285 2.886 -0.729 5.594 -0.806 8.566 -0.7 0.217 0.764 0.298 1.474 0.331 2.267l0.032 0.756 0.03 0.812 0.031 0.843c0.229 6.684 0.32 13.298 -2.732 19.443 -2.457 4.653 -6.103 8.52 -9.815 12.196a449.75 449.75 0 0 0 -1.499 1.494c-1.374 1.371 -2.744 2.733 -4.221 3.994 -3.118 2.687 -5.99 5.638 -8.891 8.553l-1.373 1.376q-1.665 1.668 -3.327 3.338h-0.503l-0.189 0.44c-0.356 0.641 -0.786 1.073 -1.32 1.572h-0.503l-0.157 0.409c-0.492 0.849 -1.146 1.428 -1.855 2.106h-0.503l-0.2 0.449c-0.317 0.584 -0.65 0.962 -1.122 1.426l-0.476 0.471 -0.496 0.483 -0.502 0.495a311 311 0 0 1 -1.227 1.202h-0.503l-0.186 0.436c-0.37 0.665 -0.807 1.11 -1.354 1.639l-0.552 0.538 -0.422 0.405h-0.503l-0.503 1.006 -1.006 0.503 -0.203 0.451c-0.306 0.566 -0.617 0.933 -1.073 1.385l-0.473 0.473 -0.509 0.501 -0.522 0.52a710.75 710.75 0 0 1 -1.653 1.637q-0.56 0.556 -1.12 1.113 -1.371 1.363 -2.747 2.722h-0.503l-0.203 0.451c-0.309 0.571 -0.624 0.937 -1.086 1.388l-0.411 0.406c-0.483 0.447 -0.975 0.875 -1.474 1.304 -1.264 1.101 -2.438 2.287 -3.617 3.478l-0.663 0.666a1060.25 1060.25 0 0 0 -1.6 1.612c-0.89 0.128 -1.781 0.253 -2.672 0.377l-0.761 0.109 -0.742 0.103 -0.678 0.096c-0.726 0.074 -1.458 0.07 -2.188 0.07v-81.478c7.668 -0.568 7.668 -0.568 10.704 -0.655q1.002 -0.036 2.003 -0.074c1.014 -0.038 2.029 -0.073 3.043 -0.101 4.006 -0.111 7.539 -0.337 11.156 -2.188 0.974 -1.105 1.845 -2.167 2.244 -3.604 0.126 -0.911 0.202 -1.811 0.255 -2.729l0.079 -0.995c0.198 -2.559 0.313 -5.126 0.387 -7.691 0.043 -1.37 0.166 -2.728 0.304 -4.091" fill="#1774BD"/>
  <path class="in-right-up" d="M378.971 98.578h2.263v82.483c-3.885 0.149 -7.754 0.29 -11.639 0.322l-1.375 0.014q-1.438 0.014 -2.875 0.028c-2.515 0.023 -5.031 0.05 -7.546 0.076l-0.746 0.008c-3.628 0.039 -7.255 0.095 -10.883 0.181 -5.715 0.135 -11.432 0.196 -17.148 0.259l-2.278 0.025c-10.265 0.115 -10.265 0.115 -14.915 0.093a605 605 0 0 1 -0.055 -4.964q-0.007 -0.842 -0.021 -1.684c-0.096 -6.276 -0.096 -6.276 1.082 -8.944 0.353 -0.656 0.705 -1.12 1.194 -1.698l0.335 -0.405a101.5 101.5 0 0 1 0.986 -1.167q0.497 -0.627 0.99 -1.257c3.294 -4.088 6.847 -7.875 10.562 -11.58l1.19 -1.19q1.603 -1.603 3.207 -3.204 1.681 -1.679 3.361 -3.359 2.816 -2.815 5.633 -5.629 2.9 -2.896 5.798 -5.793l0.362 -0.361 1.798 -1.797a69718.75 69718.75 0 0 1 14.879 -14.866h0.503v-0.503l0.331 -0.277c1.683 -1.438 3.233 -3.003 4.793 -4.571l0.888 -0.889q1.159 -1.161 2.317 -2.323 1.185 -1.189 2.372 -2.377 2.321 -2.325 4.639 -4.652" fill="#1674BB"/>
  <path class="mid-up" d="M291.458 100.59c1.184 0.142 2.119 0.371 3.269 0.754v77.705c-0.869 0.217 -1.57 0.302 -2.457 0.341l-0.886 0.041 -0.958 0.042 -1.506 0.07q-1.849 0.085 -3.699 0.166c-7.335 0.291 -7.335 0.291 -14.557 1.526l-0.836 0.199c-7.065 1.72 -13.741 4.263 -20.072 7.855l-0.599 0.34q-0.55 0.314 -1.095 0.638c-1.544 0.891 -2.848 1.265 -4.636 1.861l-2.012 -7.796c-3.661 -1.831 -6.74 -2.704 -10.688 -3.316q-0.923 -0.146 -1.845 -0.295 -0.569 -0.091 -1.139 -0.18c-0.818 -0.128 -1.625 -0.262 -2.423 -0.484 -0.712 -2.136 -0.463 -4.827 -0.252 -7.041 0.335 -1.692 1.009 -3.234 1.76 -4.778l0.273 -0.57c1.915 -3.932 4.306 -7.748 7.523 -10.747 0.199 -0.116 0.397 -0.232 0.601 -0.351 0.675 -0.415 1.173 -0.857 1.734 -1.415l0.618 -0.613 0.656 -0.659 0.683 -0.681q0.713 -0.713 1.424 -1.427a568.75 568.75 0 0 1 1.822 -1.821c0.583 -0.581 1.164 -1.163 1.745 -1.745l0.659 -0.656 0.613 -0.618 0.538 -0.54c0.497 -0.565 0.846 -1.149 1.228 -1.795 0.387 -0.447 0.387 -0.447 0.801 -0.858l0.473 -0.473c0.167 -0.164 0.334 -0.328 0.505 -0.497l0.521 -0.519c0.547 -0.544 1.096 -1.087 1.645 -1.629q0.558 -0.554 1.116 -1.109 1.365 -1.357 2.734 -2.71h0.503l0.252 -0.754c0.403 -0.397 0.403 -0.397 0.911 -0.817 1.008 -0.853 1.94 -1.758 2.861 -2.703h0.503l0.252 -0.754c0.332 -0.335 0.332 -0.335 0.786 -0.707 1.069 -0.905 2.091 -1.854 3.112 -2.813 1.127 -1.057 2.258 -2.104 3.428 -3.114 0.767 -0.664 1.52 -1.343 2.271 -2.024q0.67 -0.607 1.343 -1.21c2.738 -2.484 5.336 -5.112 7.946 -7.728q1.032 -1.034 2.067 -2.066 0.807 -0.806 1.613 -1.613l0.762 -0.761c1.416 -1.413 2.789 -2.842 4.082 -4.367l0.797 -0.922 0.759 -0.885 0.387 -0.45a80 80 0 0 0 2.081 -2.521" fill="#F99C06"/>
  <path class="mid-c" d="m292.464 236.637 2.263 0.503v25.399c-3.668 1.223 -7.319 1.066 -11.143 1.037q-0.868 -0.004 -1.736 -0.007 -2.11 -0.009 -4.221 -0.025 -0.668 -0.784 -1.334 -1.57l-0.38 -0.446c-2.15 -2.535 -2.15 -2.535 -2.561 -3.768 -0.08 -1.083 -0.082 -2.168 -0.094 -3.253l-0.029 -0.894c-0.022 -2.157 0.401 -3.744 1.38 -5.66l0.271 -0.544c1.467 -2.812 3.385 -5.016 5.937 -6.921 3.205 -2.115 7.725 -4.762 11.646 -3.85" fill="#FA9D0B"/>
  <path class="out-left-t" d="M38.224 239.403h3.018v53.313h-1.006c-0.259 -0.777 -0.328 -1.421 -0.392 -2.236l-0.074 -0.923 -0.077 -0.998 -0.082 -1.023q-0.151 -1.897 -0.299 -3.795 -0.126 -1.604 -0.255 -3.208 -0.059 -0.753 -0.117 -1.506l-0.074 -0.923 -0.064 -0.814c-0.056 -0.693 -0.056 -0.693 -0.328 -1.422 -0.131 -1.28 -0.193 -2.566 -0.264 -3.85l-0.034 -0.608c-0.315 -5.846 -0.271 -11.698 -0.254 -17.55 0.003 -1.206 0.003 -2.413 0.003 -3.619q0 -1.751 0.003 -3.502l0.002 -1.663q0.001 -1.149 0.005 -2.298l-0.001 -0.686 0.003 -0.63 0.001 -0.545c0.033 -0.506 0.033 -0.506 0.284 -1.512" fill="#4894C6"/>
  <path class="in-k-blue" d="M208.22 241.415h1.006v15.843c-1.414 -1.414 -1.414 -1.414 -2.014 -2.28l-0.39 -0.558 -0.394 -0.572 -0.788 -1.133c-0.115 -0.166 -0.229 -0.332 -0.347 -0.503a53.25 53.25 0 0 0 -1.097 -1.492 45 45 0 0 1 0.252 -2.263l0.096 -0.763c0.301 -1.743 0.85 -2.944 1.931 -4.314 0.554 -0.683 1.121 -1.342 1.744 -1.964" fill="#2D81C3"/>
</svg>
